M48
METRIC,TZ
T1C0.400
T2C0.635
T3C0.800
T4C0.900
T5C1.000
T6C1.470
%
G90
G05
T1
X107950Y-86360
X121920Y-85090
X128270Y-88900
X129540Y-97790
X135890Y-86360
X135890Y-106680
X139700Y-107950
X143510Y-109220
X144780Y-78740
X151130Y-76200
X157480Y-87630
X167640Y-87630
T2
X114530Y-92710
X114530Y-93980
X114530Y-95250
X123530Y-92710
X123530Y-93980
X123530Y-95250
X132530Y-92710
X132530Y-93980
X132530Y-95250
X141530Y-92710
X141530Y-93980
X141530Y-95250
X150530Y-92710
X150530Y-93980
X150530Y-95250
X159530Y-92710
X159530Y-93980
X159530Y-95250
X168530Y-92710
X168530Y-93980
X168530Y-95250
X177530Y-92710
X177530Y-93980
X177530Y-95250
T3
X110744Y-74168
X110744Y-81788
X120541Y-74168
X120541Y-81788
X130338Y-74168
X130338Y-81788
X134620Y-109220
X134620Y-116840
X140135Y-74168
X140135Y-81788
X146050Y-104140
X149933Y-74168
X149933Y-81788
X153670Y-104140
X159730Y-74168
X159730Y-81788
X169527Y-74168
X169527Y-81788
X179324Y-74168
X179324Y-81788
T4
X107950Y-68580
X110490Y-68580
X113030Y-68580
X117929Y-68580
X120469Y-68580
X123009Y-68580
X127907Y-68580
X130447Y-68580
X132987Y-68580
X137886Y-68580
X140426Y-68580
X142966Y-68580
X147864Y-68580
X150404Y-68580
X152944Y-68580
X157843Y-68580
X160383Y-68580
X162923Y-68580
X167821Y-68580
X170361Y-68580
X172901Y-68580
X177800Y-68580
X180340Y-68580
X182880Y-68580
T5
X125984Y-84836
X125984Y-100076
X128524Y-84836
X128524Y-100076
X131064Y-84836
X131064Y-100076
X133604Y-84836
X133604Y-100076
X136144Y-84836
X136144Y-100076
X138684Y-84836
X138684Y-100076
X141224Y-84836
X141224Y-100076
X143764Y-84836
X143764Y-100076
X146304Y-84836
X146304Y-100076
X148844Y-84836
X148844Y-100076
X151384Y-84836
X151384Y-100076
X153924Y-84836
X153924Y-100076
X156464Y-84836
X156464Y-100076
X159004Y-84836
X159004Y-100076
X161544Y-84836
X161544Y-100076
X172720Y-101600
X175260Y-101600
X177800Y-101600
T6
X125287Y-111760
X163257Y-111760
T0
M30
