G04 #@! TF.GenerationSoftware,KiCad,Pcbnew,(5.1.10)-1*
G04 #@! TF.CreationDate,2021-10-21T10:26:48-07:00*
G04 #@! TF.ProjectId,1spareparts,31737061-7265-4706-9172-74732e6b6963,rev?*
G04 #@! TF.SameCoordinates,Original*
G04 #@! TF.FileFunction,Legend,Top*
G04 #@! TF.FilePolarity,Positive*
%FSLAX46Y46*%
G04 Gerber Fmt 4.6, Leading zero omitted, Abs format (unit mm)*
G04 Created by KiCad (PCBNEW (5.1.10)-1) date 2021-10-21 10:26:48*
%MOMM*%
%LPD*%
G01*
G04 APERTURE LIST*
%ADD10C,0.120000*%
%ADD11C,0.150000*%
G04 APERTURE END LIST*
D10*
X177780000Y-67035000D02*
X177780000Y-67500000D01*
X177780000Y-69660000D02*
X177780000Y-70125000D01*
X183127815Y-67499173D02*
G75*
G03*
X177780000Y-67035170I-2787815J-1080827D01*
G01*
X183127815Y-69660827D02*
G75*
G02*
X177780000Y-70124830I-2787815J1080827D01*
G01*
X182594479Y-67499571D02*
G75*
G03*
X178085316Y-67500000I-2254479J-1080429D01*
G01*
X182594479Y-69660429D02*
G75*
G02*
X178085316Y-69660000I-2254479J1080429D01*
G01*
X107930000Y-67035000D02*
X107930000Y-67500000D01*
X107930000Y-69660000D02*
X107930000Y-70125000D01*
X113277815Y-67499173D02*
G75*
G03*
X107930000Y-67035170I-2787815J-1080827D01*
G01*
X113277815Y-69660827D02*
G75*
G02*
X107930000Y-70124830I-2787815J1080827D01*
G01*
X112744479Y-67499571D02*
G75*
G03*
X108235316Y-67500000I-2254479J-1080429D01*
G01*
X112744479Y-69660429D02*
G75*
G02*
X108235316Y-69660000I-2254479J1080429D01*
G01*
X117908571Y-69660000D02*
X117908571Y-70125000D01*
X117908571Y-67035000D02*
X117908571Y-67500000D01*
X122723050Y-69660429D02*
G75*
G02*
X118213887Y-69660000I-2254479J1080429D01*
G01*
X122723050Y-67499571D02*
G75*
G03*
X118213887Y-67500000I-2254479J-1080429D01*
G01*
X123256386Y-69660827D02*
G75*
G02*
X117908571Y-70124830I-2787815J1080827D01*
G01*
X123256386Y-67499173D02*
G75*
G03*
X117908571Y-67035170I-2787815J-1080827D01*
G01*
X127887142Y-67035000D02*
X127887142Y-67500000D01*
X127887142Y-69660000D02*
X127887142Y-70125000D01*
X133234957Y-67499173D02*
G75*
G03*
X127887142Y-67035170I-2787815J-1080827D01*
G01*
X133234957Y-69660827D02*
G75*
G02*
X127887142Y-70124830I-2787815J1080827D01*
G01*
X132701621Y-67499571D02*
G75*
G03*
X128192458Y-67500000I-2254479J-1080429D01*
G01*
X132701621Y-69660429D02*
G75*
G02*
X128192458Y-69660000I-2254479J1080429D01*
G01*
X137865713Y-69660000D02*
X137865713Y-70125000D01*
X137865713Y-67035000D02*
X137865713Y-67500000D01*
X142680192Y-69660429D02*
G75*
G02*
X138171029Y-69660000I-2254479J1080429D01*
G01*
X142680192Y-67499571D02*
G75*
G03*
X138171029Y-67500000I-2254479J-1080429D01*
G01*
X143213528Y-69660827D02*
G75*
G02*
X137865713Y-70124830I-2787815J1080827D01*
G01*
X143213528Y-67499173D02*
G75*
G03*
X137865713Y-67035170I-2787815J-1080827D01*
G01*
X147844284Y-67035000D02*
X147844284Y-67500000D01*
X147844284Y-69660000D02*
X147844284Y-70125000D01*
X153192099Y-67499173D02*
G75*
G03*
X147844284Y-67035170I-2787815J-1080827D01*
G01*
X153192099Y-69660827D02*
G75*
G02*
X147844284Y-70124830I-2787815J1080827D01*
G01*
X152658763Y-67499571D02*
G75*
G03*
X148149600Y-67500000I-2254479J-1080429D01*
G01*
X152658763Y-69660429D02*
G75*
G02*
X148149600Y-69660000I-2254479J1080429D01*
G01*
X157822855Y-69660000D02*
X157822855Y-70125000D01*
X157822855Y-67035000D02*
X157822855Y-67500000D01*
X162637334Y-69660429D02*
G75*
G02*
X158128171Y-69660000I-2254479J1080429D01*
G01*
X162637334Y-67499571D02*
G75*
G03*
X158128171Y-67500000I-2254479J-1080429D01*
G01*
X163170670Y-69660827D02*
G75*
G02*
X157822855Y-70124830I-2787815J1080827D01*
G01*
X163170670Y-67499173D02*
G75*
G03*
X157822855Y-67035170I-2787815J-1080827D01*
G01*
X155257500Y-114001550D02*
X155257500Y-111639350D01*
X153606500Y-111639350D02*
X153606500Y-114001550D01*
X155067000Y-110102650D02*
X153797000Y-110102650D01*
X154432000Y-109340650D02*
X154305000Y-110102650D01*
X154432000Y-109340650D02*
X154178000Y-110102650D01*
X154432000Y-109340650D02*
X154051000Y-110102650D01*
X154432000Y-109340650D02*
X153924000Y-110102650D01*
X154432000Y-109340650D02*
X153797000Y-110102650D01*
X154432000Y-109340650D02*
X154559000Y-110102650D01*
X154432000Y-109340650D02*
X154686000Y-110102650D01*
X154432000Y-109340650D02*
X154813000Y-110102650D01*
X154432000Y-109340650D02*
X154940000Y-110102650D01*
X154432000Y-109340650D02*
X155067000Y-110102650D01*
X155067000Y-109340650D02*
X153797000Y-109340650D01*
X154432000Y-110356650D02*
X154432000Y-109086650D01*
X167801426Y-69660000D02*
X167801426Y-70125000D01*
X167801426Y-67035000D02*
X167801426Y-67500000D01*
X172615905Y-69660429D02*
G75*
G02*
X168106742Y-69660000I-2254479J1080429D01*
G01*
X172615905Y-67499571D02*
G75*
G03*
X168106742Y-67500000I-2254479J-1080429D01*
G01*
X173149241Y-69660827D02*
G75*
G02*
X167801426Y-70124830I-2787815J1080827D01*
G01*
X173149241Y-67499173D02*
G75*
G03*
X167801426Y-67035170I-2787815J-1080827D01*
G01*
X132200000Y-117980000D02*
X132200000Y-108080000D01*
X137040000Y-117980000D02*
X137040000Y-108080000D01*
X132200000Y-117980000D02*
X137040000Y-117980000D01*
X132200000Y-108080000D02*
X137040000Y-108080000D01*
X131960000Y-118220000D02*
X131960000Y-116836000D01*
X131960000Y-118220000D02*
X133343000Y-118220000D01*
X133985000Y-115060000D02*
X135255000Y-115060000D01*
X135255000Y-115060000D02*
X135255000Y-111000000D01*
X135255000Y-111000000D02*
X133985000Y-111000000D01*
X133985000Y-111000000D02*
X133985000Y-115060000D01*
X134105000Y-115060000D02*
X134105000Y-113706667D01*
X134225000Y-115060000D02*
X134225000Y-113706667D01*
X134345000Y-115060000D02*
X134345000Y-113706667D01*
X134465000Y-115060000D02*
X134465000Y-113706667D01*
X134585000Y-115060000D02*
X134585000Y-113706667D01*
X134705000Y-115060000D02*
X134705000Y-113706667D01*
X134825000Y-115060000D02*
X134825000Y-113706667D01*
X134945000Y-115060000D02*
X134945000Y-113706667D01*
X135065000Y-115060000D02*
X135065000Y-113706667D01*
X135185000Y-115060000D02*
X135185000Y-113706667D01*
X133985000Y-113706667D02*
X135255000Y-113706667D01*
X149183333Y-103505000D02*
X149183333Y-104775000D01*
X147830000Y-104705000D02*
X149183333Y-104705000D01*
X147830000Y-104585000D02*
X149183333Y-104585000D01*
X147830000Y-104465000D02*
X149183333Y-104465000D01*
X147830000Y-104345000D02*
X149183333Y-104345000D01*
X147830000Y-104225000D02*
X149183333Y-104225000D01*
X147830000Y-104105000D02*
X149183333Y-104105000D01*
X147830000Y-103985000D02*
X149183333Y-103985000D01*
X147830000Y-103865000D02*
X149183333Y-103865000D01*
X147830000Y-103745000D02*
X149183333Y-103745000D01*
X147830000Y-103625000D02*
X149183333Y-103625000D01*
X151890000Y-103505000D02*
X147830000Y-103505000D01*
X151890000Y-104775000D02*
X151890000Y-103505000D01*
X147830000Y-104775000D02*
X151890000Y-104775000D01*
X147830000Y-103505000D02*
X147830000Y-104775000D01*
X144670000Y-101480000D02*
X144670000Y-102863000D01*
X144670000Y-101480000D02*
X146054000Y-101480000D01*
X154810000Y-101720000D02*
X154810000Y-106560000D01*
X144910000Y-101720000D02*
X144910000Y-106560000D01*
X144910000Y-106560000D02*
X154810000Y-106560000D01*
X144910000Y-101720000D02*
X154810000Y-101720000D01*
X159911000Y-90043000D02*
G75*
G03*
X159911000Y-90043000I-381000J0D01*
G01*
X159695315Y-96139000D02*
X160609500Y-96139000D01*
X159364685Y-91821000D02*
X158831500Y-91821000D01*
X158831500Y-95824237D02*
X158831500Y-96139000D01*
X160609500Y-91821000D02*
X159695315Y-91821000D01*
X160609500Y-96139000D02*
X160609500Y-91821000D01*
X158831500Y-96139000D02*
X159364685Y-96139000D01*
X158831500Y-91821000D02*
X158831500Y-92135763D01*
X167831500Y-91821000D02*
X167831500Y-92135763D01*
X167831500Y-96139000D02*
X168364685Y-96139000D01*
X169609500Y-96139000D02*
X169609500Y-91821000D01*
X169609500Y-91821000D02*
X168695315Y-91821000D01*
X167831500Y-95824237D02*
X167831500Y-96139000D01*
X168364685Y-91821000D02*
X167831500Y-91821000D01*
X168695315Y-96139000D02*
X169609500Y-96139000D01*
X168911000Y-90043000D02*
G75*
G03*
X168911000Y-90043000I-381000J0D01*
G01*
X132911000Y-90043000D02*
G75*
G03*
X132911000Y-90043000I-381000J0D01*
G01*
X132695315Y-96139000D02*
X133609500Y-96139000D01*
X132364685Y-91821000D02*
X131831500Y-91821000D01*
X131831500Y-95824237D02*
X131831500Y-96139000D01*
X133609500Y-91821000D02*
X132695315Y-91821000D01*
X133609500Y-96139000D02*
X133609500Y-91821000D01*
X131831500Y-96139000D02*
X132364685Y-96139000D01*
X131831500Y-91821000D02*
X131831500Y-92135763D01*
X176831500Y-91821000D02*
X176831500Y-92135763D01*
X176831500Y-96139000D02*
X177364685Y-96139000D01*
X178609500Y-96139000D02*
X178609500Y-91821000D01*
X178609500Y-91821000D02*
X177695315Y-91821000D01*
X176831500Y-95824237D02*
X176831500Y-96139000D01*
X177364685Y-91821000D02*
X176831500Y-91821000D01*
X177695315Y-96139000D02*
X178609500Y-96139000D01*
X177911000Y-90043000D02*
G75*
G03*
X177911000Y-90043000I-381000J0D01*
G01*
X141911000Y-90043000D02*
G75*
G03*
X141911000Y-90043000I-381000J0D01*
G01*
X141695315Y-96139000D02*
X142609500Y-96139000D01*
X141364685Y-91821000D02*
X140831500Y-91821000D01*
X140831500Y-95824237D02*
X140831500Y-96139000D01*
X142609500Y-91821000D02*
X141695315Y-91821000D01*
X142609500Y-96139000D02*
X142609500Y-91821000D01*
X140831500Y-96139000D02*
X141364685Y-96139000D01*
X140831500Y-91821000D02*
X140831500Y-92135763D01*
X122831500Y-91821000D02*
X122831500Y-92135763D01*
X122831500Y-96139000D02*
X123364685Y-96139000D01*
X124609500Y-96139000D02*
X124609500Y-91821000D01*
X124609500Y-91821000D02*
X123695315Y-91821000D01*
X122831500Y-95824237D02*
X122831500Y-96139000D01*
X123364685Y-91821000D02*
X122831500Y-91821000D01*
X123695315Y-96139000D02*
X124609500Y-96139000D01*
X123911000Y-90043000D02*
G75*
G03*
X123911000Y-90043000I-381000J0D01*
G01*
X150911000Y-90043000D02*
G75*
G03*
X150911000Y-90043000I-381000J0D01*
G01*
X150695315Y-96139000D02*
X151609500Y-96139000D01*
X150364685Y-91821000D02*
X149831500Y-91821000D01*
X149831500Y-95824237D02*
X149831500Y-96139000D01*
X151609500Y-91821000D02*
X150695315Y-91821000D01*
X151609500Y-96139000D02*
X151609500Y-91821000D01*
X149831500Y-96139000D02*
X150364685Y-96139000D01*
X149831500Y-91821000D02*
X149831500Y-92135763D01*
X113831500Y-91821000D02*
X113831500Y-92135763D01*
X113831500Y-96139000D02*
X114364685Y-96139000D01*
X115609500Y-96139000D02*
X115609500Y-91821000D01*
X115609500Y-91821000D02*
X114695315Y-91821000D01*
X113831500Y-95824237D02*
X113831500Y-96139000D01*
X114364685Y-91821000D02*
X113831500Y-91821000D01*
X114695315Y-96139000D02*
X115609500Y-96139000D01*
X114911000Y-90043000D02*
G75*
G03*
X114911000Y-90043000I-381000J0D01*
G01*
X109374000Y-81248000D02*
X109704000Y-81248000D01*
X109374000Y-74708000D02*
X109374000Y-81248000D01*
X109704000Y-74708000D02*
X109374000Y-74708000D01*
X112114000Y-81248000D02*
X111784000Y-81248000D01*
X112114000Y-74708000D02*
X112114000Y-81248000D01*
X111784000Y-74708000D02*
X112114000Y-74708000D01*
X121581142Y-74708000D02*
X121911142Y-74708000D01*
X121911142Y-74708000D02*
X121911142Y-81248000D01*
X121911142Y-81248000D02*
X121581142Y-81248000D01*
X119501142Y-74708000D02*
X119171142Y-74708000D01*
X119171142Y-74708000D02*
X119171142Y-81248000D01*
X119171142Y-81248000D02*
X119501142Y-81248000D01*
X128968284Y-81248000D02*
X129298284Y-81248000D01*
X128968284Y-74708000D02*
X128968284Y-81248000D01*
X129298284Y-74708000D02*
X128968284Y-74708000D01*
X131708284Y-81248000D02*
X131378284Y-81248000D01*
X131708284Y-74708000D02*
X131708284Y-81248000D01*
X131378284Y-74708000D02*
X131708284Y-74708000D01*
X141175426Y-74708000D02*
X141505426Y-74708000D01*
X141505426Y-74708000D02*
X141505426Y-81248000D01*
X141505426Y-81248000D02*
X141175426Y-81248000D01*
X139095426Y-74708000D02*
X138765426Y-74708000D01*
X138765426Y-74708000D02*
X138765426Y-81248000D01*
X138765426Y-81248000D02*
X139095426Y-81248000D01*
X148562568Y-81248000D02*
X148892568Y-81248000D01*
X148562568Y-74708000D02*
X148562568Y-81248000D01*
X148892568Y-74708000D02*
X148562568Y-74708000D01*
X151302568Y-81248000D02*
X150972568Y-81248000D01*
X151302568Y-74708000D02*
X151302568Y-81248000D01*
X150972568Y-74708000D02*
X151302568Y-74708000D01*
X160769710Y-74708000D02*
X161099710Y-74708000D01*
X161099710Y-74708000D02*
X161099710Y-81248000D01*
X161099710Y-81248000D02*
X160769710Y-81248000D01*
X158689710Y-74708000D02*
X158359710Y-74708000D01*
X158359710Y-74708000D02*
X158359710Y-81248000D01*
X158359710Y-81248000D02*
X158689710Y-81248000D01*
X168156852Y-81248000D02*
X168486852Y-81248000D01*
X168156852Y-74708000D02*
X168156852Y-81248000D01*
X168486852Y-74708000D02*
X168156852Y-74708000D01*
X170896852Y-81248000D02*
X170566852Y-81248000D01*
X170896852Y-74708000D02*
X170896852Y-81248000D01*
X170566852Y-74708000D02*
X170896852Y-74708000D01*
X180364000Y-74708000D02*
X180694000Y-74708000D01*
X180694000Y-74708000D02*
X180694000Y-81248000D01*
X180694000Y-81248000D02*
X180364000Y-81248000D01*
X178284000Y-74708000D02*
X177954000Y-74708000D01*
X177954000Y-74708000D02*
X177954000Y-81248000D01*
X177954000Y-81248000D02*
X178284000Y-81248000D01*
D11*
X179601904Y-65072380D02*
X179601904Y-64072380D01*
X179840000Y-64072380D01*
X179982857Y-64120000D01*
X180078095Y-64215238D01*
X180125714Y-64310476D01*
X180173333Y-64500952D01*
X180173333Y-64643809D01*
X180125714Y-64834285D01*
X180078095Y-64929523D01*
X179982857Y-65024761D01*
X179840000Y-65072380D01*
X179601904Y-65072380D01*
X180649523Y-65072380D02*
X180840000Y-65072380D01*
X180935238Y-65024761D01*
X180982857Y-64977142D01*
X181078095Y-64834285D01*
X181125714Y-64643809D01*
X181125714Y-64262857D01*
X181078095Y-64167619D01*
X181030476Y-64120000D01*
X180935238Y-64072380D01*
X180744761Y-64072380D01*
X180649523Y-64120000D01*
X180601904Y-64167619D01*
X180554285Y-64262857D01*
X180554285Y-64500952D01*
X180601904Y-64596190D01*
X180649523Y-64643809D01*
X180744761Y-64691428D01*
X180935238Y-64691428D01*
X181030476Y-64643809D01*
X181078095Y-64596190D01*
X181125714Y-64500952D01*
X109751904Y-65072380D02*
X109751904Y-64072380D01*
X109990000Y-64072380D01*
X110132857Y-64120000D01*
X110228095Y-64215238D01*
X110275714Y-64310476D01*
X110323333Y-64500952D01*
X110323333Y-64643809D01*
X110275714Y-64834285D01*
X110228095Y-64929523D01*
X110132857Y-65024761D01*
X109990000Y-65072380D01*
X109751904Y-65072380D01*
X111275714Y-65072380D02*
X110704285Y-65072380D01*
X110990000Y-65072380D02*
X110990000Y-64072380D01*
X110894761Y-64215238D01*
X110799523Y-64310476D01*
X110704285Y-64358095D01*
X119730475Y-65072380D02*
X119730475Y-64072380D01*
X119968571Y-64072380D01*
X120111428Y-64120000D01*
X120206666Y-64215238D01*
X120254285Y-64310476D01*
X120301904Y-64500952D01*
X120301904Y-64643809D01*
X120254285Y-64834285D01*
X120206666Y-64929523D01*
X120111428Y-65024761D01*
X119968571Y-65072380D01*
X119730475Y-65072380D01*
X120682856Y-64167619D02*
X120730475Y-64120000D01*
X120825713Y-64072380D01*
X121063809Y-64072380D01*
X121159047Y-64120000D01*
X121206666Y-64167619D01*
X121254285Y-64262857D01*
X121254285Y-64358095D01*
X121206666Y-64500952D01*
X120635237Y-65072380D01*
X121254285Y-65072380D01*
X129709046Y-65072380D02*
X129709046Y-64072380D01*
X129947142Y-64072380D01*
X130089999Y-64120000D01*
X130185237Y-64215238D01*
X130232856Y-64310476D01*
X130280475Y-64500952D01*
X130280475Y-64643809D01*
X130232856Y-64834285D01*
X130185237Y-64929523D01*
X130089999Y-65024761D01*
X129947142Y-65072380D01*
X129709046Y-65072380D01*
X130613808Y-64072380D02*
X131232856Y-64072380D01*
X130899522Y-64453333D01*
X131042380Y-64453333D01*
X131137618Y-64500952D01*
X131185237Y-64548571D01*
X131232856Y-64643809D01*
X131232856Y-64881904D01*
X131185237Y-64977142D01*
X131137618Y-65024761D01*
X131042380Y-65072380D01*
X130756665Y-65072380D01*
X130661427Y-65024761D01*
X130613808Y-64977142D01*
X139687617Y-65072380D02*
X139687617Y-64072380D01*
X139925713Y-64072380D01*
X140068570Y-64120000D01*
X140163808Y-64215238D01*
X140211427Y-64310476D01*
X140259046Y-64500952D01*
X140259046Y-64643809D01*
X140211427Y-64834285D01*
X140163808Y-64929523D01*
X140068570Y-65024761D01*
X139925713Y-65072380D01*
X139687617Y-65072380D01*
X141116189Y-64405714D02*
X141116189Y-65072380D01*
X140878093Y-64024761D02*
X140639998Y-64739047D01*
X141259046Y-64739047D01*
X149666188Y-65072380D02*
X149666188Y-64072380D01*
X149904284Y-64072380D01*
X150047141Y-64120000D01*
X150142379Y-64215238D01*
X150189998Y-64310476D01*
X150237617Y-64500952D01*
X150237617Y-64643809D01*
X150189998Y-64834285D01*
X150142379Y-64929523D01*
X150047141Y-65024761D01*
X149904284Y-65072380D01*
X149666188Y-65072380D01*
X151142379Y-64072380D02*
X150666188Y-64072380D01*
X150618569Y-64548571D01*
X150666188Y-64500952D01*
X150761426Y-64453333D01*
X150999522Y-64453333D01*
X151094760Y-64500952D01*
X151142379Y-64548571D01*
X151189998Y-64643809D01*
X151189998Y-64881904D01*
X151142379Y-64977142D01*
X151094760Y-65024761D01*
X150999522Y-65072380D01*
X150761426Y-65072380D01*
X150666188Y-65024761D01*
X150618569Y-64977142D01*
X159644759Y-65072380D02*
X159644759Y-64072380D01*
X159882855Y-64072380D01*
X160025712Y-64120000D01*
X160120950Y-64215238D01*
X160168569Y-64310476D01*
X160216188Y-64500952D01*
X160216188Y-64643809D01*
X160168569Y-64834285D01*
X160120950Y-64929523D01*
X160025712Y-65024761D01*
X159882855Y-65072380D01*
X159644759Y-65072380D01*
X161073331Y-64072380D02*
X160882855Y-64072380D01*
X160787616Y-64120000D01*
X160739997Y-64167619D01*
X160644759Y-64310476D01*
X160597140Y-64500952D01*
X160597140Y-64881904D01*
X160644759Y-64977142D01*
X160692378Y-65024761D01*
X160787616Y-65072380D01*
X160978093Y-65072380D01*
X161073331Y-65024761D01*
X161120950Y-64977142D01*
X161168569Y-64881904D01*
X161168569Y-64643809D01*
X161120950Y-64548571D01*
X161073331Y-64500952D01*
X160978093Y-64453333D01*
X160787616Y-64453333D01*
X160692378Y-64500952D01*
X160644759Y-64548571D01*
X160597140Y-64643809D01*
X154884380Y-113558545D02*
X153884380Y-113558545D01*
X153884380Y-113320450D01*
X153932000Y-113177592D01*
X154027238Y-113082354D01*
X154122476Y-113034735D01*
X154312952Y-112987116D01*
X154455809Y-112987116D01*
X154646285Y-113034735D01*
X154741523Y-113082354D01*
X154836761Y-113177592D01*
X154884380Y-113320450D01*
X154884380Y-113558545D01*
X153884380Y-112653783D02*
X153884380Y-111987116D01*
X154884380Y-112415688D01*
X154884380Y-114677592D02*
X153884380Y-114677592D01*
X153884380Y-114439497D01*
X153932000Y-114296640D01*
X154027238Y-114201402D01*
X154122476Y-114153783D01*
X154312952Y-114106164D01*
X154455809Y-114106164D01*
X154646285Y-114153783D01*
X154741523Y-114201402D01*
X154836761Y-114296640D01*
X154884380Y-114439497D01*
X154884380Y-114677592D01*
X154979619Y-113915688D02*
X154979619Y-113153783D01*
X154598666Y-112963307D02*
X154598666Y-112487116D01*
X154884380Y-113058545D02*
X153884380Y-112725211D01*
X154884380Y-112391878D01*
X154884380Y-111582354D02*
X154884380Y-112058545D01*
X153884380Y-112058545D01*
X153884380Y-111391878D02*
X153884380Y-110820450D01*
X154884380Y-111106164D02*
X153884380Y-111106164D01*
X153884380Y-112820450D02*
X154122476Y-112820450D01*
X154027238Y-113058545D02*
X154122476Y-112820450D01*
X154027238Y-112582354D01*
X154312952Y-112963307D02*
X154122476Y-112820450D01*
X154312952Y-112677592D01*
X169623330Y-65072380D02*
X169623330Y-64072380D01*
X169861426Y-64072380D01*
X170004283Y-64120000D01*
X170099521Y-64215238D01*
X170147140Y-64310476D01*
X170194759Y-64500952D01*
X170194759Y-64643809D01*
X170147140Y-64834285D01*
X170099521Y-64929523D01*
X170004283Y-65024761D01*
X169861426Y-65072380D01*
X169623330Y-65072380D01*
X170766187Y-64500952D02*
X170670949Y-64453333D01*
X170623330Y-64405714D01*
X170575711Y-64310476D01*
X170575711Y-64262857D01*
X170623330Y-64167619D01*
X170670949Y-64120000D01*
X170766187Y-64072380D01*
X170956664Y-64072380D01*
X171051902Y-64120000D01*
X171099521Y-64167619D01*
X171147140Y-64262857D01*
X171147140Y-64310476D01*
X171099521Y-64405714D01*
X171051902Y-64453333D01*
X170956664Y-64500952D01*
X170766187Y-64500952D01*
X170670949Y-64548571D01*
X170623330Y-64596190D01*
X170575711Y-64691428D01*
X170575711Y-64881904D01*
X170623330Y-64977142D01*
X170670949Y-65024761D01*
X170766187Y-65072380D01*
X170956664Y-65072380D01*
X171051902Y-65024761D01*
X171099521Y-64977142D01*
X171147140Y-64881904D01*
X171147140Y-64691428D01*
X171099521Y-64596190D01*
X171051902Y-64548571D01*
X170956664Y-64500952D01*
X131604761Y-114363333D02*
X131652380Y-114220476D01*
X131652380Y-113982380D01*
X131604761Y-113887142D01*
X131557142Y-113839523D01*
X131461904Y-113791904D01*
X131366666Y-113791904D01*
X131271428Y-113839523D01*
X131223809Y-113887142D01*
X131176190Y-113982380D01*
X131128571Y-114172857D01*
X131080952Y-114268095D01*
X131033333Y-114315714D01*
X130938095Y-114363333D01*
X130842857Y-114363333D01*
X130747619Y-114315714D01*
X130700000Y-114268095D01*
X130652380Y-114172857D01*
X130652380Y-113934761D01*
X130700000Y-113791904D01*
X130652380Y-113458571D02*
X131652380Y-113220476D01*
X130938095Y-113030000D01*
X131652380Y-112839523D01*
X130652380Y-112601428D01*
X131652380Y-111696666D02*
X131652380Y-112268095D01*
X131652380Y-111982380D02*
X130652380Y-111982380D01*
X130795238Y-112077619D01*
X130890476Y-112172857D01*
X130938095Y-112268095D01*
X148526666Y-101124761D02*
X148669523Y-101172380D01*
X148907619Y-101172380D01*
X149002857Y-101124761D01*
X149050476Y-101077142D01*
X149098095Y-100981904D01*
X149098095Y-100886666D01*
X149050476Y-100791428D01*
X149002857Y-100743809D01*
X148907619Y-100696190D01*
X148717142Y-100648571D01*
X148621904Y-100600952D01*
X148574285Y-100553333D01*
X148526666Y-100458095D01*
X148526666Y-100362857D01*
X148574285Y-100267619D01*
X148621904Y-100220000D01*
X148717142Y-100172380D01*
X148955238Y-100172380D01*
X149098095Y-100220000D01*
X149431428Y-100172380D02*
X149669523Y-101172380D01*
X149860000Y-100458095D01*
X150050476Y-101172380D01*
X150288571Y-100172380D01*
X150621904Y-100267619D02*
X150669523Y-100220000D01*
X150764761Y-100172380D01*
X151002857Y-100172380D01*
X151098095Y-100220000D01*
X151145714Y-100267619D01*
X151193333Y-100362857D01*
X151193333Y-100458095D01*
X151145714Y-100600952D01*
X150574285Y-101172380D01*
X151193333Y-101172380D01*
X158982380Y-94741904D02*
X159791904Y-94741904D01*
X159887142Y-94694285D01*
X159934761Y-94646666D01*
X159982380Y-94551428D01*
X159982380Y-94360952D01*
X159934761Y-94265714D01*
X159887142Y-94218095D01*
X159791904Y-94170476D01*
X158982380Y-94170476D01*
X159077619Y-93741904D02*
X159030000Y-93694285D01*
X158982380Y-93599047D01*
X158982380Y-93360952D01*
X159030000Y-93265714D01*
X159077619Y-93218095D01*
X159172857Y-93170476D01*
X159268095Y-93170476D01*
X159410952Y-93218095D01*
X159982380Y-93789523D01*
X159982380Y-93170476D01*
X159934761Y-96146666D02*
X159982380Y-96003809D01*
X159982380Y-95765714D01*
X159934761Y-95670476D01*
X159887142Y-95622857D01*
X159791904Y-95575238D01*
X159696666Y-95575238D01*
X159601428Y-95622857D01*
X159553809Y-95670476D01*
X159506190Y-95765714D01*
X159458571Y-95956190D01*
X159410952Y-96051428D01*
X159363333Y-96099047D01*
X159268095Y-96146666D01*
X159172857Y-96146666D01*
X159077619Y-96099047D01*
X159030000Y-96051428D01*
X158982380Y-95956190D01*
X158982380Y-95718095D01*
X159030000Y-95575238D01*
X159934761Y-95194285D02*
X159982380Y-95051428D01*
X159982380Y-94813333D01*
X159934761Y-94718095D01*
X159887142Y-94670476D01*
X159791904Y-94622857D01*
X159696666Y-94622857D01*
X159601428Y-94670476D01*
X159553809Y-94718095D01*
X159506190Y-94813333D01*
X159458571Y-95003809D01*
X159410952Y-95099047D01*
X159363333Y-95146666D01*
X159268095Y-95194285D01*
X159172857Y-95194285D01*
X159077619Y-95146666D01*
X159030000Y-95099047D01*
X158982380Y-95003809D01*
X158982380Y-94765714D01*
X159030000Y-94622857D01*
X159315714Y-93765714D02*
X159982380Y-93765714D01*
X158934761Y-94003809D02*
X159649047Y-94241904D01*
X159649047Y-93622857D01*
X159982380Y-93194285D02*
X159982380Y-93003809D01*
X159934761Y-92908571D01*
X159887142Y-92860952D01*
X159744285Y-92765714D01*
X159553809Y-92718095D01*
X159172857Y-92718095D01*
X159077619Y-92765714D01*
X159030000Y-92813333D01*
X158982380Y-92908571D01*
X158982380Y-93099047D01*
X159030000Y-93194285D01*
X159077619Y-93241904D01*
X159172857Y-93289523D01*
X159410952Y-93289523D01*
X159506190Y-93241904D01*
X159553809Y-93194285D01*
X159601428Y-93099047D01*
X159601428Y-92908571D01*
X159553809Y-92813333D01*
X159506190Y-92765714D01*
X159410952Y-92718095D01*
X159458571Y-92289523D02*
X159458571Y-91956190D01*
X159982380Y-91813333D02*
X159982380Y-92289523D01*
X158982380Y-92289523D01*
X158982380Y-91813333D01*
X158982380Y-92710000D02*
X159220476Y-92710000D01*
X159125238Y-92948095D02*
X159220476Y-92710000D01*
X159125238Y-92471904D01*
X159410952Y-92852857D02*
X159220476Y-92710000D01*
X159410952Y-92567142D01*
X167982380Y-94741904D02*
X168791904Y-94741904D01*
X168887142Y-94694285D01*
X168934761Y-94646666D01*
X168982380Y-94551428D01*
X168982380Y-94360952D01*
X168934761Y-94265714D01*
X168887142Y-94218095D01*
X168791904Y-94170476D01*
X167982380Y-94170476D01*
X167982380Y-93789523D02*
X167982380Y-93170476D01*
X168363333Y-93503809D01*
X168363333Y-93360952D01*
X168410952Y-93265714D01*
X168458571Y-93218095D01*
X168553809Y-93170476D01*
X168791904Y-93170476D01*
X168887142Y-93218095D01*
X168934761Y-93265714D01*
X168982380Y-93360952D01*
X168982380Y-93646666D01*
X168934761Y-93741904D01*
X168887142Y-93789523D01*
X168934761Y-96146666D02*
X168982380Y-96003809D01*
X168982380Y-95765714D01*
X168934761Y-95670476D01*
X168887142Y-95622857D01*
X168791904Y-95575238D01*
X168696666Y-95575238D01*
X168601428Y-95622857D01*
X168553809Y-95670476D01*
X168506190Y-95765714D01*
X168458571Y-95956190D01*
X168410952Y-96051428D01*
X168363333Y-96099047D01*
X168268095Y-96146666D01*
X168172857Y-96146666D01*
X168077619Y-96099047D01*
X168030000Y-96051428D01*
X167982380Y-95956190D01*
X167982380Y-95718095D01*
X168030000Y-95575238D01*
X168934761Y-95194285D02*
X168982380Y-95051428D01*
X168982380Y-94813333D01*
X168934761Y-94718095D01*
X168887142Y-94670476D01*
X168791904Y-94622857D01*
X168696666Y-94622857D01*
X168601428Y-94670476D01*
X168553809Y-94718095D01*
X168506190Y-94813333D01*
X168458571Y-95003809D01*
X168410952Y-95099047D01*
X168363333Y-95146666D01*
X168268095Y-95194285D01*
X168172857Y-95194285D01*
X168077619Y-95146666D01*
X168030000Y-95099047D01*
X167982380Y-95003809D01*
X167982380Y-94765714D01*
X168030000Y-94622857D01*
X168315714Y-93765714D02*
X168982380Y-93765714D01*
X167934761Y-94003809D02*
X168649047Y-94241904D01*
X168649047Y-93622857D01*
X168982380Y-93194285D02*
X168982380Y-93003809D01*
X168934761Y-92908571D01*
X168887142Y-92860952D01*
X168744285Y-92765714D01*
X168553809Y-92718095D01*
X168172857Y-92718095D01*
X168077619Y-92765714D01*
X168030000Y-92813333D01*
X167982380Y-92908571D01*
X167982380Y-93099047D01*
X168030000Y-93194285D01*
X168077619Y-93241904D01*
X168172857Y-93289523D01*
X168410952Y-93289523D01*
X168506190Y-93241904D01*
X168553809Y-93194285D01*
X168601428Y-93099047D01*
X168601428Y-92908571D01*
X168553809Y-92813333D01*
X168506190Y-92765714D01*
X168410952Y-92718095D01*
X168458571Y-92289523D02*
X168458571Y-91956190D01*
X168982380Y-91813333D02*
X168982380Y-92289523D01*
X167982380Y-92289523D01*
X167982380Y-91813333D01*
X167982380Y-92710000D02*
X168220476Y-92710000D01*
X168125238Y-92948095D02*
X168220476Y-92710000D01*
X168125238Y-92471904D01*
X168410952Y-92852857D02*
X168220476Y-92710000D01*
X168410952Y-92567142D01*
X131982380Y-94741904D02*
X132791904Y-94741904D01*
X132887142Y-94694285D01*
X132934761Y-94646666D01*
X132982380Y-94551428D01*
X132982380Y-94360952D01*
X132934761Y-94265714D01*
X132887142Y-94218095D01*
X132791904Y-94170476D01*
X131982380Y-94170476D01*
X132315714Y-93265714D02*
X132982380Y-93265714D01*
X131934761Y-93503809D02*
X132649047Y-93741904D01*
X132649047Y-93122857D01*
X132934761Y-96146666D02*
X132982380Y-96003809D01*
X132982380Y-95765714D01*
X132934761Y-95670476D01*
X132887142Y-95622857D01*
X132791904Y-95575238D01*
X132696666Y-95575238D01*
X132601428Y-95622857D01*
X132553809Y-95670476D01*
X132506190Y-95765714D01*
X132458571Y-95956190D01*
X132410952Y-96051428D01*
X132363333Y-96099047D01*
X132268095Y-96146666D01*
X132172857Y-96146666D01*
X132077619Y-96099047D01*
X132030000Y-96051428D01*
X131982380Y-95956190D01*
X131982380Y-95718095D01*
X132030000Y-95575238D01*
X132934761Y-95194285D02*
X132982380Y-95051428D01*
X132982380Y-94813333D01*
X132934761Y-94718095D01*
X132887142Y-94670476D01*
X132791904Y-94622857D01*
X132696666Y-94622857D01*
X132601428Y-94670476D01*
X132553809Y-94718095D01*
X132506190Y-94813333D01*
X132458571Y-95003809D01*
X132410952Y-95099047D01*
X132363333Y-95146666D01*
X132268095Y-95194285D01*
X132172857Y-95194285D01*
X132077619Y-95146666D01*
X132030000Y-95099047D01*
X131982380Y-95003809D01*
X131982380Y-94765714D01*
X132030000Y-94622857D01*
X132315714Y-93765714D02*
X132982380Y-93765714D01*
X131934761Y-94003809D02*
X132649047Y-94241904D01*
X132649047Y-93622857D01*
X132982380Y-93194285D02*
X132982380Y-93003809D01*
X132934761Y-92908571D01*
X132887142Y-92860952D01*
X132744285Y-92765714D01*
X132553809Y-92718095D01*
X132172857Y-92718095D01*
X132077619Y-92765714D01*
X132030000Y-92813333D01*
X131982380Y-92908571D01*
X131982380Y-93099047D01*
X132030000Y-93194285D01*
X132077619Y-93241904D01*
X132172857Y-93289523D01*
X132410952Y-93289523D01*
X132506190Y-93241904D01*
X132553809Y-93194285D01*
X132601428Y-93099047D01*
X132601428Y-92908571D01*
X132553809Y-92813333D01*
X132506190Y-92765714D01*
X132410952Y-92718095D01*
X132458571Y-92289523D02*
X132458571Y-91956190D01*
X132982380Y-91813333D02*
X132982380Y-92289523D01*
X131982380Y-92289523D01*
X131982380Y-91813333D01*
X131982380Y-92710000D02*
X132220476Y-92710000D01*
X132125238Y-92948095D02*
X132220476Y-92710000D01*
X132125238Y-92471904D01*
X132410952Y-92852857D02*
X132220476Y-92710000D01*
X132410952Y-92567142D01*
X176982380Y-94741904D02*
X177791904Y-94741904D01*
X177887142Y-94694285D01*
X177934761Y-94646666D01*
X177982380Y-94551428D01*
X177982380Y-94360952D01*
X177934761Y-94265714D01*
X177887142Y-94218095D01*
X177791904Y-94170476D01*
X176982380Y-94170476D01*
X176982380Y-93218095D02*
X176982380Y-93694285D01*
X177458571Y-93741904D01*
X177410952Y-93694285D01*
X177363333Y-93599047D01*
X177363333Y-93360952D01*
X177410952Y-93265714D01*
X177458571Y-93218095D01*
X177553809Y-93170476D01*
X177791904Y-93170476D01*
X177887142Y-93218095D01*
X177934761Y-93265714D01*
X177982380Y-93360952D01*
X177982380Y-93599047D01*
X177934761Y-93694285D01*
X177887142Y-93741904D01*
X177934761Y-96146666D02*
X177982380Y-96003809D01*
X177982380Y-95765714D01*
X177934761Y-95670476D01*
X177887142Y-95622857D01*
X177791904Y-95575238D01*
X177696666Y-95575238D01*
X177601428Y-95622857D01*
X177553809Y-95670476D01*
X177506190Y-95765714D01*
X177458571Y-95956190D01*
X177410952Y-96051428D01*
X177363333Y-96099047D01*
X177268095Y-96146666D01*
X177172857Y-96146666D01*
X177077619Y-96099047D01*
X177030000Y-96051428D01*
X176982380Y-95956190D01*
X176982380Y-95718095D01*
X177030000Y-95575238D01*
X177934761Y-95194285D02*
X177982380Y-95051428D01*
X177982380Y-94813333D01*
X177934761Y-94718095D01*
X177887142Y-94670476D01*
X177791904Y-94622857D01*
X177696666Y-94622857D01*
X177601428Y-94670476D01*
X177553809Y-94718095D01*
X177506190Y-94813333D01*
X177458571Y-95003809D01*
X177410952Y-95099047D01*
X177363333Y-95146666D01*
X177268095Y-95194285D01*
X177172857Y-95194285D01*
X177077619Y-95146666D01*
X177030000Y-95099047D01*
X176982380Y-95003809D01*
X176982380Y-94765714D01*
X177030000Y-94622857D01*
X177315714Y-93765714D02*
X177982380Y-93765714D01*
X176934761Y-94003809D02*
X177649047Y-94241904D01*
X177649047Y-93622857D01*
X177982380Y-93194285D02*
X177982380Y-93003809D01*
X177934761Y-92908571D01*
X177887142Y-92860952D01*
X177744285Y-92765714D01*
X177553809Y-92718095D01*
X177172857Y-92718095D01*
X177077619Y-92765714D01*
X177030000Y-92813333D01*
X176982380Y-92908571D01*
X176982380Y-93099047D01*
X177030000Y-93194285D01*
X177077619Y-93241904D01*
X177172857Y-93289523D01*
X177410952Y-93289523D01*
X177506190Y-93241904D01*
X177553809Y-93194285D01*
X177601428Y-93099047D01*
X177601428Y-92908571D01*
X177553809Y-92813333D01*
X177506190Y-92765714D01*
X177410952Y-92718095D01*
X177458571Y-92289523D02*
X177458571Y-91956190D01*
X177982380Y-91813333D02*
X177982380Y-92289523D01*
X176982380Y-92289523D01*
X176982380Y-91813333D01*
X176982380Y-92710000D02*
X177220476Y-92710000D01*
X177125238Y-92948095D02*
X177220476Y-92710000D01*
X177125238Y-92471904D01*
X177410952Y-92852857D02*
X177220476Y-92710000D01*
X177410952Y-92567142D01*
X140982380Y-94741904D02*
X141791904Y-94741904D01*
X141887142Y-94694285D01*
X141934761Y-94646666D01*
X141982380Y-94551428D01*
X141982380Y-94360952D01*
X141934761Y-94265714D01*
X141887142Y-94218095D01*
X141791904Y-94170476D01*
X140982380Y-94170476D01*
X140982380Y-93265714D02*
X140982380Y-93456190D01*
X141030000Y-93551428D01*
X141077619Y-93599047D01*
X141220476Y-93694285D01*
X141410952Y-93741904D01*
X141791904Y-93741904D01*
X141887142Y-93694285D01*
X141934761Y-93646666D01*
X141982380Y-93551428D01*
X141982380Y-93360952D01*
X141934761Y-93265714D01*
X141887142Y-93218095D01*
X141791904Y-93170476D01*
X141553809Y-93170476D01*
X141458571Y-93218095D01*
X141410952Y-93265714D01*
X141363333Y-93360952D01*
X141363333Y-93551428D01*
X141410952Y-93646666D01*
X141458571Y-93694285D01*
X141553809Y-93741904D01*
X141934761Y-96146666D02*
X141982380Y-96003809D01*
X141982380Y-95765714D01*
X141934761Y-95670476D01*
X141887142Y-95622857D01*
X141791904Y-95575238D01*
X141696666Y-95575238D01*
X141601428Y-95622857D01*
X141553809Y-95670476D01*
X141506190Y-95765714D01*
X141458571Y-95956190D01*
X141410952Y-96051428D01*
X141363333Y-96099047D01*
X141268095Y-96146666D01*
X141172857Y-96146666D01*
X141077619Y-96099047D01*
X141030000Y-96051428D01*
X140982380Y-95956190D01*
X140982380Y-95718095D01*
X141030000Y-95575238D01*
X141934761Y-95194285D02*
X141982380Y-95051428D01*
X141982380Y-94813333D01*
X141934761Y-94718095D01*
X141887142Y-94670476D01*
X141791904Y-94622857D01*
X141696666Y-94622857D01*
X141601428Y-94670476D01*
X141553809Y-94718095D01*
X141506190Y-94813333D01*
X141458571Y-95003809D01*
X141410952Y-95099047D01*
X141363333Y-95146666D01*
X141268095Y-95194285D01*
X141172857Y-95194285D01*
X141077619Y-95146666D01*
X141030000Y-95099047D01*
X140982380Y-95003809D01*
X140982380Y-94765714D01*
X141030000Y-94622857D01*
X141315714Y-93765714D02*
X141982380Y-93765714D01*
X140934761Y-94003809D02*
X141649047Y-94241904D01*
X141649047Y-93622857D01*
X141982380Y-93194285D02*
X141982380Y-93003809D01*
X141934761Y-92908571D01*
X141887142Y-92860952D01*
X141744285Y-92765714D01*
X141553809Y-92718095D01*
X141172857Y-92718095D01*
X141077619Y-92765714D01*
X141030000Y-92813333D01*
X140982380Y-92908571D01*
X140982380Y-93099047D01*
X141030000Y-93194285D01*
X141077619Y-93241904D01*
X141172857Y-93289523D01*
X141410952Y-93289523D01*
X141506190Y-93241904D01*
X141553809Y-93194285D01*
X141601428Y-93099047D01*
X141601428Y-92908571D01*
X141553809Y-92813333D01*
X141506190Y-92765714D01*
X141410952Y-92718095D01*
X141458571Y-92289523D02*
X141458571Y-91956190D01*
X141982380Y-91813333D02*
X141982380Y-92289523D01*
X140982380Y-92289523D01*
X140982380Y-91813333D01*
X140982380Y-92710000D02*
X141220476Y-92710000D01*
X141125238Y-92948095D02*
X141220476Y-92710000D01*
X141125238Y-92471904D01*
X141410952Y-92852857D02*
X141220476Y-92710000D01*
X141410952Y-92567142D01*
X122982380Y-94741904D02*
X123791904Y-94741904D01*
X123887142Y-94694285D01*
X123934761Y-94646666D01*
X123982380Y-94551428D01*
X123982380Y-94360952D01*
X123934761Y-94265714D01*
X123887142Y-94218095D01*
X123791904Y-94170476D01*
X122982380Y-94170476D01*
X122982380Y-93789523D02*
X122982380Y-93122857D01*
X123982380Y-93551428D01*
X123934761Y-96146666D02*
X123982380Y-96003809D01*
X123982380Y-95765714D01*
X123934761Y-95670476D01*
X123887142Y-95622857D01*
X123791904Y-95575238D01*
X123696666Y-95575238D01*
X123601428Y-95622857D01*
X123553809Y-95670476D01*
X123506190Y-95765714D01*
X123458571Y-95956190D01*
X123410952Y-96051428D01*
X123363333Y-96099047D01*
X123268095Y-96146666D01*
X123172857Y-96146666D01*
X123077619Y-96099047D01*
X123030000Y-96051428D01*
X122982380Y-95956190D01*
X122982380Y-95718095D01*
X123030000Y-95575238D01*
X123934761Y-95194285D02*
X123982380Y-95051428D01*
X123982380Y-94813333D01*
X123934761Y-94718095D01*
X123887142Y-94670476D01*
X123791904Y-94622857D01*
X123696666Y-94622857D01*
X123601428Y-94670476D01*
X123553809Y-94718095D01*
X123506190Y-94813333D01*
X123458571Y-95003809D01*
X123410952Y-95099047D01*
X123363333Y-95146666D01*
X123268095Y-95194285D01*
X123172857Y-95194285D01*
X123077619Y-95146666D01*
X123030000Y-95099047D01*
X122982380Y-95003809D01*
X122982380Y-94765714D01*
X123030000Y-94622857D01*
X123315714Y-93765714D02*
X123982380Y-93765714D01*
X122934761Y-94003809D02*
X123649047Y-94241904D01*
X123649047Y-93622857D01*
X123982380Y-93194285D02*
X123982380Y-93003809D01*
X123934761Y-92908571D01*
X123887142Y-92860952D01*
X123744285Y-92765714D01*
X123553809Y-92718095D01*
X123172857Y-92718095D01*
X123077619Y-92765714D01*
X123030000Y-92813333D01*
X122982380Y-92908571D01*
X122982380Y-93099047D01*
X123030000Y-93194285D01*
X123077619Y-93241904D01*
X123172857Y-93289523D01*
X123410952Y-93289523D01*
X123506190Y-93241904D01*
X123553809Y-93194285D01*
X123601428Y-93099047D01*
X123601428Y-92908571D01*
X123553809Y-92813333D01*
X123506190Y-92765714D01*
X123410952Y-92718095D01*
X123458571Y-92289523D02*
X123458571Y-91956190D01*
X123982380Y-91813333D02*
X123982380Y-92289523D01*
X122982380Y-92289523D01*
X122982380Y-91813333D01*
X122982380Y-92710000D02*
X123220476Y-92710000D01*
X123125238Y-92948095D02*
X123220476Y-92710000D01*
X123125238Y-92471904D01*
X123410952Y-92852857D02*
X123220476Y-92710000D01*
X123410952Y-92567142D01*
X149982380Y-94741904D02*
X150791904Y-94741904D01*
X150887142Y-94694285D01*
X150934761Y-94646666D01*
X150982380Y-94551428D01*
X150982380Y-94360952D01*
X150934761Y-94265714D01*
X150887142Y-94218095D01*
X150791904Y-94170476D01*
X149982380Y-94170476D01*
X150410952Y-93551428D02*
X150363333Y-93646666D01*
X150315714Y-93694285D01*
X150220476Y-93741904D01*
X150172857Y-93741904D01*
X150077619Y-93694285D01*
X150030000Y-93646666D01*
X149982380Y-93551428D01*
X149982380Y-93360952D01*
X150030000Y-93265714D01*
X150077619Y-93218095D01*
X150172857Y-93170476D01*
X150220476Y-93170476D01*
X150315714Y-93218095D01*
X150363333Y-93265714D01*
X150410952Y-93360952D01*
X150410952Y-93551428D01*
X150458571Y-93646666D01*
X150506190Y-93694285D01*
X150601428Y-93741904D01*
X150791904Y-93741904D01*
X150887142Y-93694285D01*
X150934761Y-93646666D01*
X150982380Y-93551428D01*
X150982380Y-93360952D01*
X150934761Y-93265714D01*
X150887142Y-93218095D01*
X150791904Y-93170476D01*
X150601428Y-93170476D01*
X150506190Y-93218095D01*
X150458571Y-93265714D01*
X150410952Y-93360952D01*
X150934761Y-96146666D02*
X150982380Y-96003809D01*
X150982380Y-95765714D01*
X150934761Y-95670476D01*
X150887142Y-95622857D01*
X150791904Y-95575238D01*
X150696666Y-95575238D01*
X150601428Y-95622857D01*
X150553809Y-95670476D01*
X150506190Y-95765714D01*
X150458571Y-95956190D01*
X150410952Y-96051428D01*
X150363333Y-96099047D01*
X150268095Y-96146666D01*
X150172857Y-96146666D01*
X150077619Y-96099047D01*
X150030000Y-96051428D01*
X149982380Y-95956190D01*
X149982380Y-95718095D01*
X150030000Y-95575238D01*
X150934761Y-95194285D02*
X150982380Y-95051428D01*
X150982380Y-94813333D01*
X150934761Y-94718095D01*
X150887142Y-94670476D01*
X150791904Y-94622857D01*
X150696666Y-94622857D01*
X150601428Y-94670476D01*
X150553809Y-94718095D01*
X150506190Y-94813333D01*
X150458571Y-95003809D01*
X150410952Y-95099047D01*
X150363333Y-95146666D01*
X150268095Y-95194285D01*
X150172857Y-95194285D01*
X150077619Y-95146666D01*
X150030000Y-95099047D01*
X149982380Y-95003809D01*
X149982380Y-94765714D01*
X150030000Y-94622857D01*
X150315714Y-93765714D02*
X150982380Y-93765714D01*
X149934761Y-94003809D02*
X150649047Y-94241904D01*
X150649047Y-93622857D01*
X150982380Y-93194285D02*
X150982380Y-93003809D01*
X150934761Y-92908571D01*
X150887142Y-92860952D01*
X150744285Y-92765714D01*
X150553809Y-92718095D01*
X150172857Y-92718095D01*
X150077619Y-92765714D01*
X150030000Y-92813333D01*
X149982380Y-92908571D01*
X149982380Y-93099047D01*
X150030000Y-93194285D01*
X150077619Y-93241904D01*
X150172857Y-93289523D01*
X150410952Y-93289523D01*
X150506190Y-93241904D01*
X150553809Y-93194285D01*
X150601428Y-93099047D01*
X150601428Y-92908571D01*
X150553809Y-92813333D01*
X150506190Y-92765714D01*
X150410952Y-92718095D01*
X150458571Y-92289523D02*
X150458571Y-91956190D01*
X150982380Y-91813333D02*
X150982380Y-92289523D01*
X149982380Y-92289523D01*
X149982380Y-91813333D01*
X149982380Y-92710000D02*
X150220476Y-92710000D01*
X150125238Y-92948095D02*
X150220476Y-92710000D01*
X150125238Y-92471904D01*
X150410952Y-92852857D02*
X150220476Y-92710000D01*
X150410952Y-92567142D01*
X113982380Y-94741904D02*
X114791904Y-94741904D01*
X114887142Y-94694285D01*
X114934761Y-94646666D01*
X114982380Y-94551428D01*
X114982380Y-94360952D01*
X114934761Y-94265714D01*
X114887142Y-94218095D01*
X114791904Y-94170476D01*
X113982380Y-94170476D01*
X114982380Y-93646666D02*
X114982380Y-93456190D01*
X114934761Y-93360952D01*
X114887142Y-93313333D01*
X114744285Y-93218095D01*
X114553809Y-93170476D01*
X114172857Y-93170476D01*
X114077619Y-93218095D01*
X114030000Y-93265714D01*
X113982380Y-93360952D01*
X113982380Y-93551428D01*
X114030000Y-93646666D01*
X114077619Y-93694285D01*
X114172857Y-93741904D01*
X114410952Y-93741904D01*
X114506190Y-93694285D01*
X114553809Y-93646666D01*
X114601428Y-93551428D01*
X114601428Y-93360952D01*
X114553809Y-93265714D01*
X114506190Y-93218095D01*
X114410952Y-93170476D01*
X114934761Y-96146666D02*
X114982380Y-96003809D01*
X114982380Y-95765714D01*
X114934761Y-95670476D01*
X114887142Y-95622857D01*
X114791904Y-95575238D01*
X114696666Y-95575238D01*
X114601428Y-95622857D01*
X114553809Y-95670476D01*
X114506190Y-95765714D01*
X114458571Y-95956190D01*
X114410952Y-96051428D01*
X114363333Y-96099047D01*
X114268095Y-96146666D01*
X114172857Y-96146666D01*
X114077619Y-96099047D01*
X114030000Y-96051428D01*
X113982380Y-95956190D01*
X113982380Y-95718095D01*
X114030000Y-95575238D01*
X114934761Y-95194285D02*
X114982380Y-95051428D01*
X114982380Y-94813333D01*
X114934761Y-94718095D01*
X114887142Y-94670476D01*
X114791904Y-94622857D01*
X114696666Y-94622857D01*
X114601428Y-94670476D01*
X114553809Y-94718095D01*
X114506190Y-94813333D01*
X114458571Y-95003809D01*
X114410952Y-95099047D01*
X114363333Y-95146666D01*
X114268095Y-95194285D01*
X114172857Y-95194285D01*
X114077619Y-95146666D01*
X114030000Y-95099047D01*
X113982380Y-95003809D01*
X113982380Y-94765714D01*
X114030000Y-94622857D01*
X114315714Y-93765714D02*
X114982380Y-93765714D01*
X113934761Y-94003809D02*
X114649047Y-94241904D01*
X114649047Y-93622857D01*
X114982380Y-93194285D02*
X114982380Y-93003809D01*
X114934761Y-92908571D01*
X114887142Y-92860952D01*
X114744285Y-92765714D01*
X114553809Y-92718095D01*
X114172857Y-92718095D01*
X114077619Y-92765714D01*
X114030000Y-92813333D01*
X113982380Y-92908571D01*
X113982380Y-93099047D01*
X114030000Y-93194285D01*
X114077619Y-93241904D01*
X114172857Y-93289523D01*
X114410952Y-93289523D01*
X114506190Y-93241904D01*
X114553809Y-93194285D01*
X114601428Y-93099047D01*
X114601428Y-92908571D01*
X114553809Y-92813333D01*
X114506190Y-92765714D01*
X114410952Y-92718095D01*
X114458571Y-92289523D02*
X114458571Y-91956190D01*
X114982380Y-91813333D02*
X114982380Y-92289523D01*
X113982380Y-92289523D01*
X113982380Y-91813333D01*
X113982380Y-92710000D02*
X114220476Y-92710000D01*
X114125238Y-92948095D02*
X114220476Y-92710000D01*
X114125238Y-92471904D01*
X114410952Y-92852857D02*
X114220476Y-92710000D01*
X114410952Y-92567142D01*
X113566380Y-78144666D02*
X113090190Y-78478000D01*
X113566380Y-78716095D02*
X112566380Y-78716095D01*
X112566380Y-78335142D01*
X112614000Y-78239904D01*
X112661619Y-78192285D01*
X112756857Y-78144666D01*
X112899714Y-78144666D01*
X112994952Y-78192285D01*
X113042571Y-78239904D01*
X113090190Y-78335142D01*
X113090190Y-78716095D01*
X113566380Y-77192285D02*
X113566380Y-77763714D01*
X113566380Y-77478000D02*
X112566380Y-77478000D01*
X112709238Y-77573238D01*
X112804476Y-77668476D01*
X112852095Y-77763714D01*
X123363522Y-78144666D02*
X122887332Y-78478000D01*
X123363522Y-78716095D02*
X122363522Y-78716095D01*
X122363522Y-78335142D01*
X122411142Y-78239904D01*
X122458761Y-78192285D01*
X122553999Y-78144666D01*
X122696856Y-78144666D01*
X122792094Y-78192285D01*
X122839713Y-78239904D01*
X122887332Y-78335142D01*
X122887332Y-78716095D01*
X122458761Y-77763714D02*
X122411142Y-77716095D01*
X122363522Y-77620857D01*
X122363522Y-77382761D01*
X122411142Y-77287523D01*
X122458761Y-77239904D01*
X122553999Y-77192285D01*
X122649237Y-77192285D01*
X122792094Y-77239904D01*
X123363522Y-77811333D01*
X123363522Y-77192285D01*
X133160664Y-78144666D02*
X132684474Y-78478000D01*
X133160664Y-78716095D02*
X132160664Y-78716095D01*
X132160664Y-78335142D01*
X132208284Y-78239904D01*
X132255903Y-78192285D01*
X132351141Y-78144666D01*
X132493998Y-78144666D01*
X132589236Y-78192285D01*
X132636855Y-78239904D01*
X132684474Y-78335142D01*
X132684474Y-78716095D01*
X132160664Y-77811333D02*
X132160664Y-77192285D01*
X132541617Y-77525619D01*
X132541617Y-77382761D01*
X132589236Y-77287523D01*
X132636855Y-77239904D01*
X132732093Y-77192285D01*
X132970188Y-77192285D01*
X133065426Y-77239904D01*
X133113045Y-77287523D01*
X133160664Y-77382761D01*
X133160664Y-77668476D01*
X133113045Y-77763714D01*
X133065426Y-77811333D01*
X142957806Y-78144666D02*
X142481616Y-78478000D01*
X142957806Y-78716095D02*
X141957806Y-78716095D01*
X141957806Y-78335142D01*
X142005426Y-78239904D01*
X142053045Y-78192285D01*
X142148283Y-78144666D01*
X142291140Y-78144666D01*
X142386378Y-78192285D01*
X142433997Y-78239904D01*
X142481616Y-78335142D01*
X142481616Y-78716095D01*
X142291140Y-77287523D02*
X142957806Y-77287523D01*
X141910187Y-77525619D02*
X142624473Y-77763714D01*
X142624473Y-77144666D01*
X152754948Y-78144666D02*
X152278758Y-78478000D01*
X152754948Y-78716095D02*
X151754948Y-78716095D01*
X151754948Y-78335142D01*
X151802568Y-78239904D01*
X151850187Y-78192285D01*
X151945425Y-78144666D01*
X152088282Y-78144666D01*
X152183520Y-78192285D01*
X152231139Y-78239904D01*
X152278758Y-78335142D01*
X152278758Y-78716095D01*
X151754948Y-77239904D02*
X151754948Y-77716095D01*
X152231139Y-77763714D01*
X152183520Y-77716095D01*
X152135901Y-77620857D01*
X152135901Y-77382761D01*
X152183520Y-77287523D01*
X152231139Y-77239904D01*
X152326377Y-77192285D01*
X152564472Y-77192285D01*
X152659710Y-77239904D01*
X152707329Y-77287523D01*
X152754948Y-77382761D01*
X152754948Y-77620857D01*
X152707329Y-77716095D01*
X152659710Y-77763714D01*
X162552090Y-78144666D02*
X162075900Y-78478000D01*
X162552090Y-78716095D02*
X161552090Y-78716095D01*
X161552090Y-78335142D01*
X161599710Y-78239904D01*
X161647329Y-78192285D01*
X161742567Y-78144666D01*
X161885424Y-78144666D01*
X161980662Y-78192285D01*
X162028281Y-78239904D01*
X162075900Y-78335142D01*
X162075900Y-78716095D01*
X161552090Y-77287523D02*
X161552090Y-77478000D01*
X161599710Y-77573238D01*
X161647329Y-77620857D01*
X161790186Y-77716095D01*
X161980662Y-77763714D01*
X162361614Y-77763714D01*
X162456852Y-77716095D01*
X162504471Y-77668476D01*
X162552090Y-77573238D01*
X162552090Y-77382761D01*
X162504471Y-77287523D01*
X162456852Y-77239904D01*
X162361614Y-77192285D01*
X162123519Y-77192285D01*
X162028281Y-77239904D01*
X161980662Y-77287523D01*
X161933043Y-77382761D01*
X161933043Y-77573238D01*
X161980662Y-77668476D01*
X162028281Y-77716095D01*
X162123519Y-77763714D01*
X172349232Y-78144666D02*
X171873042Y-78478000D01*
X172349232Y-78716095D02*
X171349232Y-78716095D01*
X171349232Y-78335142D01*
X171396852Y-78239904D01*
X171444471Y-78192285D01*
X171539709Y-78144666D01*
X171682566Y-78144666D01*
X171777804Y-78192285D01*
X171825423Y-78239904D01*
X171873042Y-78335142D01*
X171873042Y-78716095D01*
X171349232Y-77811333D02*
X171349232Y-77144666D01*
X172349232Y-77573238D01*
X182146380Y-78144666D02*
X181670190Y-78478000D01*
X182146380Y-78716095D02*
X181146380Y-78716095D01*
X181146380Y-78335142D01*
X181194000Y-78239904D01*
X181241619Y-78192285D01*
X181336857Y-78144666D01*
X181479714Y-78144666D01*
X181574952Y-78192285D01*
X181622571Y-78239904D01*
X181670190Y-78335142D01*
X181670190Y-78716095D01*
X181574952Y-77573238D02*
X181527333Y-77668476D01*
X181479714Y-77716095D01*
X181384476Y-77763714D01*
X181336857Y-77763714D01*
X181241619Y-77716095D01*
X181194000Y-77668476D01*
X181146380Y-77573238D01*
X181146380Y-77382761D01*
X181194000Y-77287523D01*
X181241619Y-77239904D01*
X181336857Y-77192285D01*
X181384476Y-77192285D01*
X181479714Y-77239904D01*
X181527333Y-77287523D01*
X181574952Y-77382761D01*
X181574952Y-77573238D01*
X181622571Y-77668476D01*
X181670190Y-77716095D01*
X181765428Y-77763714D01*
X181955904Y-77763714D01*
X182051142Y-77716095D01*
X182098761Y-77668476D01*
X182146380Y-77573238D01*
X182146380Y-77382761D01*
X182098761Y-77287523D01*
X182051142Y-77239904D01*
X181955904Y-77192285D01*
X181765428Y-77192285D01*
X181670190Y-77239904D01*
X181622571Y-77287523D01*
X181574952Y-77382761D01*
M02*
