G04 #@! TF.GenerationSoftware,KiCad,Pcbnew,(5.1.10)-1*
G04 #@! TF.CreationDate,2021-10-21T10:26:48-07:00*
G04 #@! TF.ProjectId,1spareparts,31737061-7265-4706-9172-74732e6b6963,rev?*
G04 #@! TF.SameCoordinates,Original*
G04 #@! TF.FileFunction,Soldermask,Top*
G04 #@! TF.FilePolarity,Negative*
%FSLAX46Y46*%
G04 Gerber Fmt 4.6, Leading zero omitted, Abs format (unit mm)*
G04 Created by KiCad (PCBNEW (5.1.10)-1) date 2021-10-21 10:26:48*
%MOMM*%
%LPD*%
G01*
G04 APERTURE LIST*
%ADD10C,1.270000*%
%ADD11C,2.205000*%
%ADD12R,1.600000X1.600000*%
%ADD13O,1.600000X1.600000*%
%ADD14O,1.500000X2.300000*%
%ADD15R,1.500000X2.300000*%
%ADD16R,1.800000X1.800000*%
%ADD17C,1.800000*%
%ADD18R,0.889000X0.952500*%
%ADD19C,1.143000*%
%ADD20C,1.600000*%
G04 APERTURE END LIST*
D10*
X163852000Y-105390000D03*
D11*
X163257000Y-111760000D03*
X125287000Y-111760000D03*
D12*
X125984000Y-84836000D03*
D13*
X159004000Y-100076000D03*
X128524000Y-84836000D03*
X156464000Y-100076000D03*
X131064000Y-84836000D03*
X153924000Y-100076000D03*
X133604000Y-84836000D03*
X151384000Y-100076000D03*
X136144000Y-84836000D03*
X148844000Y-100076000D03*
X138684000Y-84836000D03*
X146304000Y-100076000D03*
X141224000Y-84836000D03*
X143764000Y-100076000D03*
X143764000Y-84836000D03*
X141224000Y-100076000D03*
X146304000Y-84836000D03*
X138684000Y-100076000D03*
X148844000Y-84836000D03*
X136144000Y-100076000D03*
X151384000Y-84836000D03*
X133604000Y-100076000D03*
X153924000Y-84836000D03*
X131064000Y-100076000D03*
X156464000Y-84836000D03*
X128524000Y-100076000D03*
X159004000Y-84836000D03*
X125984000Y-100076000D03*
X161544000Y-84836000D03*
X161544000Y-100076000D03*
D14*
X177800000Y-101600000D03*
X175260000Y-101600000D03*
D15*
X172720000Y-101600000D03*
D16*
X177800000Y-68580000D03*
D17*
X180340000Y-68580000D03*
X182880000Y-68580000D03*
D16*
X107950000Y-68580000D03*
D17*
X110490000Y-68580000D03*
X113030000Y-68580000D03*
X123008571Y-68580000D03*
X120468571Y-68580000D03*
D16*
X117928571Y-68580000D03*
X127907142Y-68580000D03*
D17*
X130447142Y-68580000D03*
X132987142Y-68580000D03*
X142965713Y-68580000D03*
X140425713Y-68580000D03*
D16*
X137885713Y-68580000D03*
X147864284Y-68580000D03*
D17*
X150404284Y-68580000D03*
X152944284Y-68580000D03*
X162922855Y-68580000D03*
X160382855Y-68580000D03*
D16*
X157842855Y-68580000D03*
D18*
X154432000Y-111848900D03*
X154432000Y-113792000D03*
D17*
X172901426Y-68580000D03*
X170361426Y-68580000D03*
D16*
X167821426Y-68580000D03*
D12*
X134620000Y-116840000D03*
D13*
X134620000Y-109220000D03*
X153670000Y-104140000D03*
D12*
X146050000Y-104140000D03*
D19*
X159530000Y-92710000D03*
X159530000Y-93980000D03*
X159530000Y-95250000D03*
X168530000Y-95250000D03*
X168530000Y-93980000D03*
X168530000Y-92710000D03*
X132530000Y-92710000D03*
X132530000Y-93980000D03*
X132530000Y-95250000D03*
X177530000Y-95250000D03*
X177530000Y-93980000D03*
X177530000Y-92710000D03*
X141530000Y-92710000D03*
X141530000Y-93980000D03*
X141530000Y-95250000D03*
X123530000Y-95250000D03*
X123530000Y-93980000D03*
X123530000Y-92710000D03*
X150530000Y-92710000D03*
X150530000Y-93980000D03*
X150530000Y-95250000D03*
X114530000Y-95250000D03*
X114530000Y-93980000D03*
X114530000Y-92710000D03*
D13*
X110744000Y-81788000D03*
D20*
X110744000Y-74168000D03*
X120541142Y-74168000D03*
D13*
X120541142Y-81788000D03*
X130338284Y-81788000D03*
D20*
X130338284Y-74168000D03*
X140135426Y-74168000D03*
D13*
X140135426Y-81788000D03*
X149932568Y-81788000D03*
D20*
X149932568Y-74168000D03*
X159729710Y-74168000D03*
D13*
X159729710Y-81788000D03*
X169526852Y-81788000D03*
D20*
X169526852Y-74168000D03*
X179324000Y-74168000D03*
D13*
X179324000Y-81788000D03*
M02*
