M48
INCH,TZ
T1C0.0157
T2C0.0250
T3C0.0315
T4C0.0354
T5C0.0394
T6C0.0579
%
G90
G05
T1
X42500Y-34500
X45000Y-33500
X46500Y-35000
X50000Y-30000
X50000Y-31500
X53000Y-31500
X53500Y-30500
X57000Y-27500
X57000Y-28500
X57000Y-31500
X57500Y-26500
X57500Y-31000
X60500Y-35000
X64000Y-38000
X72000Y-33000
T2
X45000Y-36200
X45000Y-36700
X45000Y-37200
X48543Y-36200
X48543Y-36700
X48543Y-37200
X52087Y-36200
X52087Y-36700
X52087Y-37200
X55630Y-36200
X55630Y-36700
X55630Y-37200
X59173Y-36200
X59173Y-36700
X59173Y-37200
X62717Y-36200
X62717Y-36700
X62717Y-37200
X66260Y-36200
X66260Y-36700
X66260Y-37200
X69803Y-36200
X69803Y-36700
X69803Y-37200
T3
X43600Y-29200
X43600Y-32200
X47457Y-29200
X47457Y-32200
X51314Y-29200
X51314Y-32200
X55171Y-29200
X55171Y-32200
X57500Y-41000
X58000Y-45000
X59029Y-29200
X59029Y-32200
X60500Y-41000
X61000Y-45000
X62886Y-29200
X62886Y-32200
X66743Y-29200
X66743Y-32200
X70600Y-29200
X70600Y-32200
T4
X42500Y-27000
X43500Y-27000
X44500Y-27000
X46429Y-27000
X47429Y-27000
X48429Y-27000
X50357Y-27000
X51357Y-27000
X52357Y-27000
X54286Y-27000
X55286Y-27000
X56286Y-27000
X58214Y-27000
X59214Y-27000
X60214Y-27000
X62143Y-27000
X63143Y-27000
X64143Y-27000
X66071Y-27000
X67071Y-27000
X68071Y-27000
X70000Y-27000
X71000Y-27000
X72000Y-27000
T5
X49600Y-33400
X49600Y-39400
X50600Y-33400
X50600Y-39400
X51600Y-33400
X51600Y-39400
X52600Y-33400
X52600Y-39400
X53600Y-33400
X53600Y-39400
X54600Y-33400
X54600Y-39400
X55600Y-33400
X55600Y-39400
X56600Y-33400
X56600Y-39400
X57600Y-33400
X57600Y-39400
X58600Y-33400
X58600Y-39400
X59600Y-33400
X59600Y-39400
X60600Y-33400
X60600Y-39400
X61600Y-33400
X61600Y-39400
X62600Y-33400
X62600Y-39400
X63600Y-33400
X63600Y-39400
X68000Y-40000
X69000Y-40000
X70000Y-40000
T6
X49326Y-44000
X64274Y-44000
T0
M30
