G04 #@! TF.GenerationSoftware,KiCad,Pcbnew,(5.1.10)-1*
G04 #@! TF.CreationDate,2021-07-07T10:57:58-07:00*
G04 #@! TF.ProjectId,8MagnetTester4Filter,384d6167-6e65-4745-9465-737465723446,rev?*
G04 #@! TF.SameCoordinates,Original*
G04 #@! TF.FileFunction,Copper,L2,Bot*
G04 #@! TF.FilePolarity,Positive*
%FSLAX46Y46*%
G04 Gerber Fmt 4.6, Leading zero omitted, Abs format (unit mm)*
G04 Created by KiCad (PCBNEW (5.1.10)-1) date 2021-07-07 10:57:58*
%MOMM*%
%LPD*%
G01*
G04 APERTURE LIST*
G04 #@! TA.AperFunction,ComponentPad*
%ADD10O,1.500000X2.300000*%
G04 #@! TD*
G04 #@! TA.AperFunction,ComponentPad*
%ADD11R,1.500000X2.300000*%
G04 #@! TD*
G04 #@! TA.AperFunction,ComponentPad*
%ADD12C,2.205000*%
G04 #@! TD*
G04 #@! TA.AperFunction,ComponentPad*
%ADD13R,1.800000X1.800000*%
G04 #@! TD*
G04 #@! TA.AperFunction,ComponentPad*
%ADD14C,1.800000*%
G04 #@! TD*
G04 #@! TA.AperFunction,ComponentPad*
%ADD15R,1.600000X1.600000*%
G04 #@! TD*
G04 #@! TA.AperFunction,ComponentPad*
%ADD16O,1.600000X1.600000*%
G04 #@! TD*
G04 #@! TA.AperFunction,SMDPad,CuDef*
%ADD17R,1.524000X0.558800*%
G04 #@! TD*
G04 #@! TA.AperFunction,ComponentPad*
%ADD18C,1.143000*%
G04 #@! TD*
G04 #@! TA.AperFunction,ComponentPad*
%ADD19C,1.600000*%
G04 #@! TD*
G04 #@! TA.AperFunction,ViaPad*
%ADD20C,0.800000*%
G04 #@! TD*
G04 #@! TA.AperFunction,Conductor*
%ADD21C,0.250000*%
G04 #@! TD*
G04 APERTURE END LIST*
D10*
X177800000Y-101600000D03*
X175260000Y-101600000D03*
D11*
X172720000Y-101600000D03*
D12*
X163257000Y-111760000D03*
X125287000Y-111760000D03*
D13*
X177800000Y-68580000D03*
D14*
X180340000Y-68580000D03*
X182880000Y-68580000D03*
D15*
X125984000Y-84836000D03*
D16*
X159004000Y-100076000D03*
X128524000Y-84836000D03*
X156464000Y-100076000D03*
X131064000Y-84836000D03*
X153924000Y-100076000D03*
X133604000Y-84836000D03*
X151384000Y-100076000D03*
X136144000Y-84836000D03*
X148844000Y-100076000D03*
X138684000Y-84836000D03*
X146304000Y-100076000D03*
X141224000Y-84836000D03*
X143764000Y-100076000D03*
X143764000Y-84836000D03*
X141224000Y-100076000D03*
X146304000Y-84836000D03*
X138684000Y-100076000D03*
X148844000Y-84836000D03*
X136144000Y-100076000D03*
X151384000Y-84836000D03*
X133604000Y-100076000D03*
X153924000Y-84836000D03*
X131064000Y-100076000D03*
X156464000Y-84836000D03*
X128524000Y-100076000D03*
X159004000Y-84836000D03*
X125984000Y-100076000D03*
X161544000Y-84836000D03*
X161544000Y-100076000D03*
D13*
X107950000Y-68580000D03*
D14*
X110490000Y-68580000D03*
X113030000Y-68580000D03*
X123008571Y-68580000D03*
X120468571Y-68580000D03*
D13*
X117928571Y-68580000D03*
X127907142Y-68580000D03*
D14*
X130447142Y-68580000D03*
X132987142Y-68580000D03*
X142965713Y-68580000D03*
X140425713Y-68580000D03*
D13*
X137885713Y-68580000D03*
X147864284Y-68580000D03*
D14*
X150404284Y-68580000D03*
X152944284Y-68580000D03*
X162922855Y-68580000D03*
X160382855Y-68580000D03*
D13*
X157842855Y-68580000D03*
D14*
X172901426Y-68580000D03*
X170361426Y-68580000D03*
D13*
X167821426Y-68580000D03*
D17*
X111044796Y-87630000D03*
X111044796Y-86360000D03*
X111044796Y-85090000D03*
X111044796Y-83820000D03*
X116332000Y-83820000D03*
X116332000Y-85090000D03*
X116332000Y-86360000D03*
X116332000Y-87630000D03*
X180443602Y-87757000D03*
X180443602Y-86487000D03*
X180443602Y-85217000D03*
X180443602Y-83947000D03*
X175156398Y-83947000D03*
X175156398Y-85217000D03*
X175156398Y-86487000D03*
X175156398Y-87757000D03*
D18*
X123300000Y-91948000D03*
X123300000Y-93218000D03*
X123300000Y-94488000D03*
X141300000Y-91948000D03*
X141300000Y-93218000D03*
X141300000Y-94488000D03*
X177300000Y-91948000D03*
X177300000Y-93218000D03*
X177300000Y-94488000D03*
X114300000Y-94488000D03*
X114300000Y-93218000D03*
X114300000Y-91948000D03*
X159300000Y-94488000D03*
X159300000Y-93218000D03*
X159300000Y-91948000D03*
X168300000Y-91948000D03*
X168300000Y-93218000D03*
X168300000Y-94488000D03*
X150300000Y-94488000D03*
X150300000Y-93218000D03*
X150300000Y-91948000D03*
X132300000Y-91948000D03*
X132300000Y-93218000D03*
X132300000Y-94488000D03*
D15*
X147320000Y-114300000D03*
D16*
X154940000Y-114300000D03*
X153670000Y-104140000D03*
D15*
X146050000Y-104140000D03*
D16*
X110744000Y-81788000D03*
D19*
X110744000Y-74168000D03*
X120541142Y-74168000D03*
D16*
X120541142Y-81788000D03*
X130338284Y-81788000D03*
D19*
X130338284Y-74168000D03*
X140135426Y-74168000D03*
D16*
X140135426Y-81788000D03*
X149932568Y-81788000D03*
D19*
X149932568Y-74168000D03*
X159729710Y-74168000D03*
D16*
X159729710Y-81788000D03*
X169526852Y-81788000D03*
D19*
X169526852Y-74168000D03*
X179324000Y-74168000D03*
D16*
X179324000Y-81788000D03*
D20*
X118110000Y-88900000D03*
X135890000Y-77470000D03*
X134620000Y-80010000D03*
X162560000Y-96520000D03*
X146050000Y-78740000D03*
X144780000Y-69850000D03*
X144780000Y-72390000D03*
X144780000Y-80010000D03*
X146050000Y-67310000D03*
X127000000Y-76200000D03*
X127000000Y-80010000D03*
X107950000Y-87630000D03*
X153670000Y-88900000D03*
X114300000Y-85090000D03*
X182880000Y-83820000D03*
D21*
X175156398Y-89804398D02*
X177300000Y-91948000D01*
X175156398Y-87757000D02*
X175156398Y-89804398D01*
X177300000Y-86348602D02*
X177300000Y-91948000D01*
X176168398Y-85217000D02*
X177300000Y-86348602D01*
X175156398Y-85217000D02*
X176168398Y-85217000D01*
X175156398Y-83947000D02*
X175156398Y-85217000D01*
X111044796Y-85090000D02*
X113030000Y-85090000D01*
X113030000Y-85090000D02*
X113030000Y-87630000D01*
X113030000Y-87630000D02*
X111044796Y-87630000D01*
X114300000Y-91948000D02*
X114300000Y-90170000D01*
X111760000Y-87630000D02*
X111044796Y-87630000D01*
X132300000Y-91948000D02*
X130302000Y-91948000D01*
X128524000Y-93726000D02*
X128524000Y-100076000D01*
X130302000Y-91948000D02*
X128524000Y-93726000D01*
X170180000Y-106680000D02*
X175260000Y-101600000D01*
X118110000Y-88900000D02*
X113030000Y-88900000D01*
X113030000Y-88900000D02*
X111760000Y-87630000D01*
X114300000Y-90170000D02*
X113030000Y-88900000D01*
X175260000Y-102870000D02*
X175260000Y-101600000D01*
X176530000Y-104140000D02*
X175260000Y-102870000D01*
X179070000Y-104140000D02*
X176530000Y-104140000D01*
X180340000Y-102870000D02*
X179070000Y-104140000D01*
X180340000Y-92710000D02*
X180340000Y-102870000D01*
X179578000Y-91948000D02*
X180340000Y-92710000D01*
X177300000Y-91948000D02*
X179578000Y-91948000D01*
X160717000Y-114300000D02*
X163257000Y-111760000D01*
X154940000Y-114300000D02*
X160717000Y-114300000D01*
X165100000Y-111760000D02*
X170180000Y-106680000D01*
X163257000Y-111760000D02*
X165100000Y-111760000D01*
X177800000Y-94988000D02*
X177300000Y-94488000D01*
X177800000Y-101600000D02*
X177800000Y-94988000D01*
X123300000Y-97392000D02*
X125984000Y-100076000D01*
X123300000Y-94488000D02*
X123300000Y-97392000D01*
X132300000Y-98772000D02*
X133604000Y-100076000D01*
X132300000Y-94488000D02*
X132300000Y-98772000D01*
X153924000Y-100076000D02*
X153924000Y-91694000D01*
X153281499Y-91051499D02*
X136278501Y-91051499D01*
X153924000Y-91694000D02*
X153281499Y-91051499D01*
X134112000Y-93218000D02*
X132300000Y-93218000D01*
X136278501Y-91051499D02*
X134112000Y-93218000D01*
X150300000Y-93218000D02*
X149352000Y-93218000D01*
X149352000Y-93218000D02*
X148590000Y-93980000D01*
X148590000Y-97282000D02*
X151384000Y-100076000D01*
X148590000Y-93980000D02*
X148590000Y-97282000D01*
X107950000Y-68580000D02*
X110490000Y-66040000D01*
X135345713Y-66040000D02*
X137885713Y-68580000D01*
X110490000Y-66040000D02*
X135345713Y-66040000D01*
X137885713Y-68580000D02*
X140425713Y-66040000D01*
X165281426Y-66040000D02*
X167821426Y-68580000D01*
X140425713Y-66040000D02*
X165281426Y-66040000D01*
X137885713Y-75474287D02*
X135890000Y-77470000D01*
X137885713Y-68580000D02*
X137885713Y-75474287D01*
X167403499Y-94114501D02*
X167403499Y-98026501D01*
X168300000Y-93218000D02*
X167403499Y-94114501D01*
X167403499Y-98026501D02*
X163830000Y-101600000D01*
X150368000Y-101600000D02*
X148844000Y-100076000D01*
X163830000Y-101600000D02*
X150368000Y-101600000D01*
X134620000Y-80772000D02*
X134620000Y-80010000D01*
X138684000Y-84836000D02*
X134620000Y-80772000D01*
X159300000Y-93218000D02*
X161798000Y-93218000D01*
X162560000Y-93980000D02*
X162560000Y-96520000D01*
X161798000Y-93218000D02*
X162560000Y-93980000D01*
X143510000Y-82550000D02*
X141224000Y-84836000D01*
X143510000Y-78740000D02*
X143510000Y-82550000D01*
X120650000Y-78740000D02*
X143510000Y-78740000D01*
X118110000Y-76200000D02*
X120650000Y-78740000D01*
X118110000Y-73401860D02*
X118110000Y-76200000D01*
X117928571Y-73220431D02*
X118110000Y-73401860D01*
X117928571Y-68580000D02*
X117928571Y-73220431D01*
X147864284Y-74385716D02*
X143510000Y-78740000D01*
X147864284Y-68580000D02*
X147864284Y-74385716D01*
X146050000Y-78740000D02*
X143510000Y-78740000D01*
X114300000Y-93218000D02*
X117348000Y-93218000D01*
X117348000Y-93218000D02*
X119380000Y-95250000D01*
X119380000Y-95250000D02*
X119380000Y-104140000D01*
X119380000Y-104140000D02*
X120650000Y-105410000D01*
X120650000Y-105410000D02*
X142240000Y-105410000D01*
X143764000Y-103886000D02*
X143764000Y-100076000D01*
X142240000Y-105410000D02*
X143764000Y-103886000D01*
X144780000Y-69850000D02*
X144780000Y-72390000D01*
X144780000Y-83820000D02*
X143764000Y-84836000D01*
X144780000Y-80010000D02*
X144780000Y-83820000D01*
X156572855Y-67310000D02*
X157842855Y-68580000D01*
X146050000Y-67310000D02*
X156572855Y-67310000D01*
X146304000Y-80118855D02*
X146304000Y-84836000D01*
X157842855Y-68580000D02*
X146304000Y-80118855D01*
X141300000Y-93218000D02*
X139192000Y-93218000D01*
X138684000Y-93726000D02*
X138684000Y-100076000D01*
X139192000Y-93218000D02*
X138684000Y-93726000D01*
X160382855Y-68580000D02*
X147320000Y-81642855D01*
X147320000Y-83312000D02*
X148844000Y-84836000D01*
X147320000Y-81642855D02*
X147320000Y-83312000D01*
X130447142Y-68580000D02*
X127000000Y-72027142D01*
X127000000Y-72494718D02*
X127000000Y-76200000D01*
X127000000Y-72027142D02*
X127000000Y-72494718D01*
X127000000Y-80010000D02*
X123190000Y-83820000D01*
X123190000Y-83820000D02*
X123190000Y-86360000D01*
X147320000Y-86360000D02*
X148844000Y-84836000D01*
X123190000Y-86360000D02*
X147320000Y-86360000D01*
X123300000Y-93218000D02*
X121412000Y-93218000D01*
X121412000Y-93218000D02*
X120650000Y-93980000D01*
X120650000Y-93980000D02*
X120650000Y-102870000D01*
X120650000Y-102870000D02*
X135890000Y-102870000D01*
X135890000Y-100330000D02*
X136144000Y-100076000D01*
X135890000Y-102870000D02*
X135890000Y-100330000D01*
X111044796Y-86360000D02*
X110032796Y-86360000D01*
X110032796Y-86360000D02*
X107950000Y-86360000D01*
X107950000Y-86360000D02*
X107950000Y-87630000D01*
X111044796Y-83820000D02*
X113030000Y-83820000D01*
X113030000Y-83820000D02*
X114300000Y-82550000D01*
X114300000Y-82550000D02*
X118110000Y-82550000D01*
X118110000Y-82550000D02*
X123190000Y-87630000D01*
X151130000Y-87630000D02*
X153924000Y-84836000D01*
X123190000Y-87630000D02*
X151130000Y-87630000D01*
X161290000Y-89662000D02*
X156464000Y-84836000D01*
X172212000Y-89662000D02*
X161290000Y-89662000D01*
X172720000Y-90170000D02*
X172212000Y-89662000D01*
X172720000Y-93346410D02*
X172720000Y-90170000D01*
X151766410Y-114300000D02*
X172720000Y-93346410D01*
X147320000Y-114300000D02*
X151766410Y-114300000D01*
X160655000Y-86487000D02*
X159004000Y-84836000D01*
X175156398Y-86487000D02*
X160655000Y-86487000D01*
X110744000Y-70866000D02*
X113030000Y-68580000D01*
X110744000Y-74168000D02*
X110744000Y-70866000D01*
X120541142Y-71047429D02*
X123008571Y-68580000D01*
X120541142Y-74168000D02*
X120541142Y-71047429D01*
X130338284Y-71228858D02*
X132987142Y-68580000D01*
X130338284Y-74168000D02*
X130338284Y-71228858D01*
X140135426Y-71410287D02*
X142965713Y-68580000D01*
X140135426Y-74168000D02*
X140135426Y-71410287D01*
X149932568Y-71591716D02*
X152944284Y-68580000D01*
X149932568Y-74168000D02*
X149932568Y-71591716D01*
X159729710Y-71773145D02*
X162922855Y-68580000D01*
X159729710Y-74168000D02*
X159729710Y-71773145D01*
X169526852Y-71954574D02*
X172901426Y-68580000D01*
X169526852Y-74168000D02*
X169526852Y-71954574D01*
X179324000Y-72136000D02*
X182880000Y-68580000D01*
X179324000Y-74168000D02*
X179324000Y-72136000D01*
X116688402Y-85090000D02*
X116332000Y-85090000D01*
X120498402Y-88900000D02*
X116688402Y-85090000D01*
X153670000Y-88900000D02*
X120498402Y-88900000D01*
X116332000Y-87630000D02*
X115570000Y-87630000D01*
X114300000Y-86360000D02*
X114300000Y-85090000D01*
X115570000Y-87630000D02*
X114300000Y-86360000D01*
X181455602Y-87757000D02*
X182880000Y-86332602D01*
X180443602Y-87757000D02*
X181455602Y-87757000D01*
X182880000Y-86332602D02*
X182880000Y-83820000D01*
M02*
