G04 #@! TF.GenerationSoftware,KiCad,Pcbnew,(5.1.10)-1*
G04 #@! TF.CreationDate,2021-07-07T10:57:58-07:00*
G04 #@! TF.ProjectId,8MagnetTester4Filter,384d6167-6e65-4745-9465-737465723446,rev?*
G04 #@! TF.SameCoordinates,Original*
G04 #@! TF.FileFunction,Legend,Bot*
G04 #@! TF.FilePolarity,Positive*
%FSLAX46Y46*%
G04 Gerber Fmt 4.6, Leading zero omitted, Abs format (unit mm)*
G04 Created by KiCad (PCBNEW (5.1.10)-1) date 2021-07-07 10:57:58*
%MOMM*%
%LPD*%
G01*
G04 APERTURE LIST*
%ADD10C,0.120000*%
%ADD11C,0.127000*%
%ADD12C,0.150000*%
%ADD13C,0.015000*%
G04 APERTURE END LIST*
D10*
X169109000Y-99300000D02*
X170349000Y-99300000D01*
X169109000Y-100540000D02*
X169109000Y-99300000D01*
X181070000Y-108160000D02*
X181070000Y-99540000D01*
X169349000Y-108160000D02*
X169349000Y-99540000D01*
X169349000Y-99540000D02*
X181070000Y-99540000D01*
X169349000Y-108160000D02*
X181070000Y-108160000D01*
D11*
X122772000Y-120650000D02*
X165772000Y-120650000D01*
X122772000Y-102870000D02*
X122772000Y-120650000D01*
X165772000Y-102870000D02*
X122772000Y-102870000D01*
X165772000Y-120650000D02*
X165772000Y-102870000D01*
D10*
X127254000Y-86106000D02*
X124714000Y-86106000D01*
X124714000Y-86106000D02*
X124714000Y-83436000D01*
X127254000Y-83436000D02*
X165484000Y-83436000D01*
X122044000Y-83436000D02*
X124714000Y-83436000D01*
X124714000Y-98806000D02*
X124714000Y-101476000D01*
X124714000Y-98806000D02*
X162814000Y-98806000D01*
X162814000Y-98806000D02*
X162814000Y-101476000D01*
X127254000Y-86106000D02*
X127254000Y-83436000D01*
X127254000Y-86106000D02*
X162814000Y-86106000D01*
X162814000Y-86106000D02*
X162814000Y-83436000D01*
X165484000Y-83436000D02*
X165484000Y-101476000D01*
X165484000Y-101476000D02*
X122044000Y-101476000D01*
X122044000Y-101476000D02*
X122044000Y-83436000D01*
X115796598Y-88328500D02*
X111580198Y-88328500D01*
X111580198Y-83121500D02*
X115796598Y-83121500D01*
X175691800Y-83248500D02*
X179908200Y-83248500D01*
X179908200Y-88455500D02*
X175691800Y-88455500D01*
X123681000Y-97155000D02*
G75*
G03*
X123681000Y-97155000I-381000J0D01*
G01*
X141681000Y-97155000D02*
G75*
G03*
X141681000Y-97155000I-381000J0D01*
G01*
X177681000Y-97155000D02*
G75*
G03*
X177681000Y-97155000I-381000J0D01*
G01*
X114681000Y-97155000D02*
G75*
G03*
X114681000Y-97155000I-381000J0D01*
G01*
X159681000Y-97155000D02*
G75*
G03*
X159681000Y-97155000I-381000J0D01*
G01*
X168681000Y-97155000D02*
G75*
G03*
X168681000Y-97155000I-381000J0D01*
G01*
X150681000Y-97155000D02*
G75*
G03*
X150681000Y-97155000I-381000J0D01*
G01*
X132681000Y-97155000D02*
G75*
G03*
X132681000Y-97155000I-381000J0D01*
G01*
D12*
X178617142Y-109612380D02*
X179188571Y-109612380D01*
X178902857Y-109612380D02*
X178902857Y-108612380D01*
X178998095Y-108755238D01*
X179093333Y-108850476D01*
X179188571Y-108898095D01*
X178188571Y-109231428D02*
X177426666Y-109231428D01*
X176521904Y-108945714D02*
X176521904Y-109612380D01*
X176760000Y-108564761D02*
X176998095Y-109279047D01*
X176379047Y-109279047D01*
X176140952Y-108612380D02*
X175807619Y-109612380D01*
X175474285Y-108612380D01*
X175283809Y-108945714D02*
X174902857Y-108945714D01*
X175140952Y-108612380D02*
X175140952Y-109469523D01*
X175093333Y-109564761D01*
X174998095Y-109612380D01*
X174902857Y-109612380D01*
X174426666Y-109612380D02*
X174521904Y-109564761D01*
X174569523Y-109517142D01*
X174617142Y-109421904D01*
X174617142Y-109136190D01*
X174569523Y-109040952D01*
X174521904Y-108993333D01*
X174426666Y-108945714D01*
X174283809Y-108945714D01*
X174188571Y-108993333D01*
X174140952Y-109040952D01*
X174093333Y-109136190D01*
X174093333Y-109421904D01*
X174140952Y-109517142D01*
X174188571Y-109564761D01*
X174283809Y-109612380D01*
X174426666Y-109612380D01*
X173188571Y-108612380D02*
X173664761Y-108612380D01*
X173712380Y-109088571D01*
X173664761Y-109040952D01*
X173569523Y-108993333D01*
X173331428Y-108993333D01*
X173236190Y-109040952D01*
X173188571Y-109088571D01*
X173140952Y-109183809D01*
X173140952Y-109421904D01*
X173188571Y-109517142D01*
X173236190Y-109564761D01*
X173331428Y-109612380D01*
X173569523Y-109612380D01*
X173664761Y-109564761D01*
X173712380Y-109517142D01*
X172855238Y-108612380D02*
X172521904Y-109612380D01*
X172188571Y-108612380D01*
X171331428Y-109612380D02*
X171902857Y-109612380D01*
X171617142Y-109612380D02*
X171617142Y-108612380D01*
X171712380Y-108755238D01*
X171807619Y-108850476D01*
X171902857Y-108898095D01*
D13*
X127888904Y-122007380D02*
X127888904Y-122816904D01*
X127841285Y-122912142D01*
X127793666Y-122959761D01*
X127698428Y-123007380D01*
X127507952Y-123007380D01*
X127412714Y-122959761D01*
X127365095Y-122912142D01*
X127317476Y-122816904D01*
X127317476Y-122007380D01*
X126317476Y-123007380D02*
X126888904Y-123007380D01*
X126603190Y-123007380D02*
X126603190Y-122007380D01*
X126698428Y-122150238D01*
X126793666Y-122245476D01*
X126888904Y-122293095D01*
X121183333Y-111352000D02*
X120116666Y-111352000D01*
X167665333Y-110590000D02*
X166598666Y-110590000D01*
X167132000Y-111123333D02*
X167132000Y-110056666D01*
D12*
X121070666Y-91741714D02*
X121070666Y-92217904D01*
X121356380Y-91646476D02*
X120356380Y-91979809D01*
X121356380Y-92313142D01*
X121356380Y-93170285D02*
X121356380Y-92598857D01*
X121356380Y-92884571D02*
X120356380Y-92884571D01*
X120499238Y-92789333D01*
X120594476Y-92694095D01*
X120642095Y-92598857D01*
X119283636Y-86177380D02*
X119759826Y-86177380D01*
X119759826Y-85177380D01*
X118950302Y-85653571D02*
X118616969Y-85653571D01*
X118474112Y-86177380D02*
X118950302Y-86177380D01*
X118950302Y-85177380D01*
X118474112Y-85177380D01*
X118045540Y-86177380D02*
X118045540Y-85177380D01*
X117807445Y-85177380D01*
X117664588Y-85225000D01*
X117569350Y-85320238D01*
X117521731Y-85415476D01*
X117474112Y-85605952D01*
X117474112Y-85748809D01*
X117521731Y-85939285D01*
X117569350Y-86034523D01*
X117664588Y-86129761D01*
X117807445Y-86177380D01*
X118045540Y-86177380D01*
X116521731Y-85225000D02*
X116616969Y-85177380D01*
X116759826Y-85177380D01*
X116902683Y-85225000D01*
X116997921Y-85320238D01*
X117045540Y-85415476D01*
X117093159Y-85605952D01*
X117093159Y-85748809D01*
X117045540Y-85939285D01*
X116997921Y-86034523D01*
X116902683Y-86129761D01*
X116759826Y-86177380D01*
X116664588Y-86177380D01*
X116521731Y-86129761D01*
X116474112Y-86082142D01*
X116474112Y-85748809D01*
X116664588Y-85748809D01*
X116045540Y-86177380D02*
X116045540Y-85510714D01*
X116045540Y-85701190D02*
X115997921Y-85605952D01*
X115950302Y-85558333D01*
X115855064Y-85510714D01*
X115759826Y-85510714D01*
X115283636Y-86177380D02*
X115378874Y-86129761D01*
X115426493Y-86082142D01*
X115474112Y-85986904D01*
X115474112Y-85701190D01*
X115426493Y-85605952D01*
X115378874Y-85558333D01*
X115283636Y-85510714D01*
X115140778Y-85510714D01*
X115045540Y-85558333D01*
X114997921Y-85605952D01*
X114950302Y-85701190D01*
X114950302Y-85986904D01*
X114997921Y-86082142D01*
X115045540Y-86129761D01*
X115140778Y-86177380D01*
X115283636Y-86177380D01*
X114093159Y-85510714D02*
X114093159Y-86177380D01*
X114521731Y-85510714D02*
X114521731Y-86034523D01*
X114474112Y-86129761D01*
X114378874Y-86177380D01*
X114236017Y-86177380D01*
X114140778Y-86129761D01*
X114093159Y-86082142D01*
X113616969Y-85510714D02*
X113616969Y-86510714D01*
X113616969Y-85558333D02*
X113521731Y-85510714D01*
X113331255Y-85510714D01*
X113236017Y-85558333D01*
X113188398Y-85605952D01*
X113140778Y-85701190D01*
X113140778Y-85986904D01*
X113188398Y-86082142D01*
X113236017Y-86129761D01*
X113331255Y-86177380D01*
X113521731Y-86177380D01*
X113616969Y-86129761D01*
X112759826Y-86129761D02*
X112616969Y-86177380D01*
X112378874Y-86177380D01*
X112283636Y-86129761D01*
X112236017Y-86082142D01*
X112188398Y-85986904D01*
X112188398Y-85891666D01*
X112236017Y-85796428D01*
X112283636Y-85748809D01*
X112378874Y-85701190D01*
X112569350Y-85653571D01*
X112664588Y-85605952D01*
X112712207Y-85558333D01*
X112759826Y-85463095D01*
X112759826Y-85367857D01*
X112712207Y-85272619D01*
X112664588Y-85225000D01*
X112569350Y-85177380D01*
X112331255Y-85177380D01*
X112188398Y-85225000D01*
X111378874Y-86129761D02*
X111474112Y-86177380D01*
X111664588Y-86177380D01*
X111759826Y-86129761D01*
X111807445Y-86034523D01*
X111807445Y-85653571D01*
X111759826Y-85558333D01*
X111664588Y-85510714D01*
X111474112Y-85510714D01*
X111378874Y-85558333D01*
X111331255Y-85653571D01*
X111331255Y-85748809D01*
X111807445Y-85844047D01*
X110759826Y-86177380D02*
X110855064Y-86129761D01*
X110902683Y-86034523D01*
X110902683Y-85177380D01*
X109997921Y-86129761D02*
X110093159Y-86177380D01*
X110283636Y-86177380D01*
X110378874Y-86129761D01*
X110426493Y-86034523D01*
X110426493Y-85653571D01*
X110378874Y-85558333D01*
X110283636Y-85510714D01*
X110093159Y-85510714D01*
X109997921Y-85558333D01*
X109950302Y-85653571D01*
X109950302Y-85748809D01*
X110426493Y-85844047D01*
X109093159Y-86129761D02*
X109188398Y-86177380D01*
X109378874Y-86177380D01*
X109474112Y-86129761D01*
X109521731Y-86082142D01*
X109569350Y-85986904D01*
X109569350Y-85701190D01*
X109521731Y-85605952D01*
X109474112Y-85558333D01*
X109378874Y-85510714D01*
X109188398Y-85510714D01*
X109093159Y-85558333D01*
X108807445Y-85510714D02*
X108426493Y-85510714D01*
X108664588Y-85177380D02*
X108664588Y-86034523D01*
X108616969Y-86129761D01*
X108521731Y-86177380D01*
X108426493Y-86177380D01*
X107569350Y-86177380D02*
X108140778Y-86177380D01*
X107855064Y-86177380D02*
X107855064Y-85177380D01*
X107950302Y-85320238D01*
X108045540Y-85415476D01*
X108140778Y-85463095D01*
X119974112Y-86177380D02*
X119974112Y-85177380D01*
X119736017Y-85177380D01*
X119593159Y-85225000D01*
X119497921Y-85320238D01*
X119450302Y-85415476D01*
X119402683Y-85605952D01*
X119402683Y-85748809D01*
X119450302Y-85939285D01*
X119497921Y-86034523D01*
X119593159Y-86129761D01*
X119736017Y-86177380D01*
X119974112Y-86177380D01*
X118974112Y-86177380D02*
X118974112Y-85177380D01*
X118640778Y-85891666D01*
X118307445Y-85177380D01*
X118307445Y-86177380D01*
X117831255Y-86177380D02*
X117831255Y-85177380D01*
X117259826Y-86177380D01*
X117259826Y-85177380D01*
X116355064Y-85177380D02*
X116545540Y-85177380D01*
X116640778Y-85225000D01*
X116688398Y-85272619D01*
X116783636Y-85415476D01*
X116831255Y-85605952D01*
X116831255Y-85986904D01*
X116783636Y-86082142D01*
X116736017Y-86129761D01*
X116640778Y-86177380D01*
X116450302Y-86177380D01*
X116355064Y-86129761D01*
X116307445Y-86082142D01*
X116259826Y-85986904D01*
X116259826Y-85748809D01*
X116307445Y-85653571D01*
X116355064Y-85605952D01*
X116450302Y-85558333D01*
X116640778Y-85558333D01*
X116736017Y-85605952D01*
X116783636Y-85653571D01*
X116831255Y-85748809D01*
X115640778Y-85177380D02*
X115545540Y-85177380D01*
X115450302Y-85225000D01*
X115402683Y-85272619D01*
X115355064Y-85367857D01*
X115307445Y-85558333D01*
X115307445Y-85796428D01*
X115355064Y-85986904D01*
X115402683Y-86082142D01*
X115450302Y-86129761D01*
X115545540Y-86177380D01*
X115640778Y-86177380D01*
X115736017Y-86129761D01*
X115783636Y-86082142D01*
X115831255Y-85986904D01*
X115878874Y-85796428D01*
X115878874Y-85558333D01*
X115831255Y-85367857D01*
X115783636Y-85272619D01*
X115736017Y-85225000D01*
X115640778Y-85177380D01*
X114450302Y-85510714D02*
X114450302Y-86177380D01*
X114688398Y-85129761D02*
X114926493Y-85844047D01*
X114307445Y-85844047D01*
X113736017Y-85177380D02*
X113640778Y-85177380D01*
X113545540Y-85225000D01*
X113497921Y-85272619D01*
X113450302Y-85367857D01*
X113402683Y-85558333D01*
X113402683Y-85796428D01*
X113450302Y-85986904D01*
X113497921Y-86082142D01*
X113545540Y-86129761D01*
X113640778Y-86177380D01*
X113736017Y-86177380D01*
X113831255Y-86129761D01*
X113878874Y-86082142D01*
X113926493Y-85986904D01*
X113974112Y-85796428D01*
X113974112Y-85558333D01*
X113926493Y-85367857D01*
X113878874Y-85272619D01*
X113831255Y-85225000D01*
X113736017Y-85177380D01*
X113021731Y-86129761D02*
X112878874Y-86177380D01*
X112640778Y-86177380D01*
X112545540Y-86129761D01*
X112497921Y-86082142D01*
X112450302Y-85986904D01*
X112450302Y-85891666D01*
X112497921Y-85796428D01*
X112545540Y-85748809D01*
X112640778Y-85701190D01*
X112831255Y-85653571D01*
X112926493Y-85605952D01*
X112974112Y-85558333D01*
X113021731Y-85463095D01*
X113021731Y-85367857D01*
X112974112Y-85272619D01*
X112926493Y-85225000D01*
X112831255Y-85177380D01*
X112593159Y-85177380D01*
X112450302Y-85225000D01*
X112069350Y-86129761D02*
X111926493Y-86177380D01*
X111688398Y-86177380D01*
X111593159Y-86129761D01*
X111545540Y-86082142D01*
X111497921Y-85986904D01*
X111497921Y-85891666D01*
X111545540Y-85796428D01*
X111593159Y-85748809D01*
X111688398Y-85701190D01*
X111878874Y-85653571D01*
X111974112Y-85605952D01*
X112021731Y-85558333D01*
X112069350Y-85463095D01*
X112069350Y-85367857D01*
X112021731Y-85272619D01*
X111974112Y-85225000D01*
X111878874Y-85177380D01*
X111640778Y-85177380D01*
X111497921Y-85225000D01*
X111069350Y-86177380D02*
X111069350Y-85177380D01*
X110831255Y-85177380D01*
X110688398Y-85225000D01*
X110593159Y-85320238D01*
X110545540Y-85415476D01*
X110497921Y-85605952D01*
X110497921Y-85748809D01*
X110545540Y-85939285D01*
X110593159Y-86034523D01*
X110688398Y-86129761D01*
X110831255Y-86177380D01*
X111069350Y-86177380D01*
X110069350Y-85796428D02*
X109307445Y-85796428D01*
X108307445Y-86177380D02*
X108878874Y-86177380D01*
X108593159Y-86177380D02*
X108593159Y-85177380D01*
X108688398Y-85320238D01*
X108783636Y-85415476D01*
X108878874Y-85463095D01*
X107974112Y-85177380D02*
X107355064Y-85177380D01*
X107688398Y-85558333D01*
X107545540Y-85558333D01*
X107450302Y-85605952D01*
X107402683Y-85653571D01*
X107355064Y-85748809D01*
X107355064Y-85986904D01*
X107402683Y-86082142D01*
X107450302Y-86129761D01*
X107545540Y-86177380D01*
X107831255Y-86177380D01*
X107926493Y-86129761D01*
X107974112Y-86082142D01*
X110790798Y-88784180D02*
X110790798Y-89022276D01*
X111028893Y-88927038D02*
X110790798Y-89022276D01*
X110552702Y-88927038D01*
X110933655Y-89212752D02*
X110790798Y-89022276D01*
X110647940Y-89212752D01*
X110790798Y-88784180D02*
X110790798Y-89022276D01*
X111028893Y-88927038D02*
X110790798Y-89022276D01*
X110552702Y-88927038D01*
X110933655Y-89212752D02*
X110790798Y-89022276D01*
X110647940Y-89212752D01*
X183395238Y-86304380D02*
X183871428Y-86304380D01*
X183871428Y-85304380D01*
X183061904Y-85780571D02*
X182728571Y-85780571D01*
X182585714Y-86304380D02*
X183061904Y-86304380D01*
X183061904Y-85304380D01*
X182585714Y-85304380D01*
X182157142Y-86304380D02*
X182157142Y-85304380D01*
X181919047Y-85304380D01*
X181776190Y-85352000D01*
X181680952Y-85447238D01*
X181633333Y-85542476D01*
X181585714Y-85732952D01*
X181585714Y-85875809D01*
X181633333Y-86066285D01*
X181680952Y-86161523D01*
X181776190Y-86256761D01*
X181919047Y-86304380D01*
X182157142Y-86304380D01*
X180633333Y-85352000D02*
X180728571Y-85304380D01*
X180871428Y-85304380D01*
X181014285Y-85352000D01*
X181109523Y-85447238D01*
X181157142Y-85542476D01*
X181204761Y-85732952D01*
X181204761Y-85875809D01*
X181157142Y-86066285D01*
X181109523Y-86161523D01*
X181014285Y-86256761D01*
X180871428Y-86304380D01*
X180776190Y-86304380D01*
X180633333Y-86256761D01*
X180585714Y-86209142D01*
X180585714Y-85875809D01*
X180776190Y-85875809D01*
X180157142Y-86304380D02*
X180157142Y-85637714D01*
X180157142Y-85828190D02*
X180109523Y-85732952D01*
X180061904Y-85685333D01*
X179966666Y-85637714D01*
X179871428Y-85637714D01*
X179395238Y-86304380D02*
X179490476Y-86256761D01*
X179538095Y-86209142D01*
X179585714Y-86113904D01*
X179585714Y-85828190D01*
X179538095Y-85732952D01*
X179490476Y-85685333D01*
X179395238Y-85637714D01*
X179252380Y-85637714D01*
X179157142Y-85685333D01*
X179109523Y-85732952D01*
X179061904Y-85828190D01*
X179061904Y-86113904D01*
X179109523Y-86209142D01*
X179157142Y-86256761D01*
X179252380Y-86304380D01*
X179395238Y-86304380D01*
X178204761Y-85637714D02*
X178204761Y-86304380D01*
X178633333Y-85637714D02*
X178633333Y-86161523D01*
X178585714Y-86256761D01*
X178490476Y-86304380D01*
X178347619Y-86304380D01*
X178252380Y-86256761D01*
X178204761Y-86209142D01*
X177728571Y-85637714D02*
X177728571Y-86637714D01*
X177728571Y-85685333D02*
X177633333Y-85637714D01*
X177442857Y-85637714D01*
X177347619Y-85685333D01*
X177300000Y-85732952D01*
X177252380Y-85828190D01*
X177252380Y-86113904D01*
X177300000Y-86209142D01*
X177347619Y-86256761D01*
X177442857Y-86304380D01*
X177633333Y-86304380D01*
X177728571Y-86256761D01*
X176871428Y-86256761D02*
X176728571Y-86304380D01*
X176490476Y-86304380D01*
X176395238Y-86256761D01*
X176347619Y-86209142D01*
X176300000Y-86113904D01*
X176300000Y-86018666D01*
X176347619Y-85923428D01*
X176395238Y-85875809D01*
X176490476Y-85828190D01*
X176680952Y-85780571D01*
X176776190Y-85732952D01*
X176823809Y-85685333D01*
X176871428Y-85590095D01*
X176871428Y-85494857D01*
X176823809Y-85399619D01*
X176776190Y-85352000D01*
X176680952Y-85304380D01*
X176442857Y-85304380D01*
X176300000Y-85352000D01*
X175490476Y-86256761D02*
X175585714Y-86304380D01*
X175776190Y-86304380D01*
X175871428Y-86256761D01*
X175919047Y-86161523D01*
X175919047Y-85780571D01*
X175871428Y-85685333D01*
X175776190Y-85637714D01*
X175585714Y-85637714D01*
X175490476Y-85685333D01*
X175442857Y-85780571D01*
X175442857Y-85875809D01*
X175919047Y-85971047D01*
X174871428Y-86304380D02*
X174966666Y-86256761D01*
X175014285Y-86161523D01*
X175014285Y-85304380D01*
X174109523Y-86256761D02*
X174204761Y-86304380D01*
X174395238Y-86304380D01*
X174490476Y-86256761D01*
X174538095Y-86161523D01*
X174538095Y-85780571D01*
X174490476Y-85685333D01*
X174395238Y-85637714D01*
X174204761Y-85637714D01*
X174109523Y-85685333D01*
X174061904Y-85780571D01*
X174061904Y-85875809D01*
X174538095Y-85971047D01*
X173204761Y-86256761D02*
X173300000Y-86304380D01*
X173490476Y-86304380D01*
X173585714Y-86256761D01*
X173633333Y-86209142D01*
X173680952Y-86113904D01*
X173680952Y-85828190D01*
X173633333Y-85732952D01*
X173585714Y-85685333D01*
X173490476Y-85637714D01*
X173300000Y-85637714D01*
X173204761Y-85685333D01*
X172919047Y-85637714D02*
X172538095Y-85637714D01*
X172776190Y-85304380D02*
X172776190Y-86161523D01*
X172728571Y-86256761D01*
X172633333Y-86304380D01*
X172538095Y-86304380D01*
X172252380Y-85399619D02*
X172204761Y-85352000D01*
X172109523Y-85304380D01*
X171871428Y-85304380D01*
X171776190Y-85352000D01*
X171728571Y-85399619D01*
X171680952Y-85494857D01*
X171680952Y-85590095D01*
X171728571Y-85732952D01*
X172300000Y-86304380D01*
X171680952Y-86304380D01*
X184085714Y-86304380D02*
X184085714Y-85304380D01*
X183847619Y-85304380D01*
X183704761Y-85352000D01*
X183609523Y-85447238D01*
X183561904Y-85542476D01*
X183514285Y-85732952D01*
X183514285Y-85875809D01*
X183561904Y-86066285D01*
X183609523Y-86161523D01*
X183704761Y-86256761D01*
X183847619Y-86304380D01*
X184085714Y-86304380D01*
X183085714Y-86304380D02*
X183085714Y-85304380D01*
X182752380Y-86018666D01*
X182419047Y-85304380D01*
X182419047Y-86304380D01*
X181942857Y-86304380D02*
X181942857Y-85304380D01*
X181371428Y-86304380D01*
X181371428Y-85304380D01*
X180466666Y-85304380D02*
X180657142Y-85304380D01*
X180752380Y-85352000D01*
X180800000Y-85399619D01*
X180895238Y-85542476D01*
X180942857Y-85732952D01*
X180942857Y-86113904D01*
X180895238Y-86209142D01*
X180847619Y-86256761D01*
X180752380Y-86304380D01*
X180561904Y-86304380D01*
X180466666Y-86256761D01*
X180419047Y-86209142D01*
X180371428Y-86113904D01*
X180371428Y-85875809D01*
X180419047Y-85780571D01*
X180466666Y-85732952D01*
X180561904Y-85685333D01*
X180752380Y-85685333D01*
X180847619Y-85732952D01*
X180895238Y-85780571D01*
X180942857Y-85875809D01*
X179752380Y-85304380D02*
X179657142Y-85304380D01*
X179561904Y-85352000D01*
X179514285Y-85399619D01*
X179466666Y-85494857D01*
X179419047Y-85685333D01*
X179419047Y-85923428D01*
X179466666Y-86113904D01*
X179514285Y-86209142D01*
X179561904Y-86256761D01*
X179657142Y-86304380D01*
X179752380Y-86304380D01*
X179847619Y-86256761D01*
X179895238Y-86209142D01*
X179942857Y-86113904D01*
X179990476Y-85923428D01*
X179990476Y-85685333D01*
X179942857Y-85494857D01*
X179895238Y-85399619D01*
X179847619Y-85352000D01*
X179752380Y-85304380D01*
X178561904Y-85637714D02*
X178561904Y-86304380D01*
X178800000Y-85256761D02*
X179038095Y-85971047D01*
X178419047Y-85971047D01*
X177847619Y-85304380D02*
X177752380Y-85304380D01*
X177657142Y-85352000D01*
X177609523Y-85399619D01*
X177561904Y-85494857D01*
X177514285Y-85685333D01*
X177514285Y-85923428D01*
X177561904Y-86113904D01*
X177609523Y-86209142D01*
X177657142Y-86256761D01*
X177752380Y-86304380D01*
X177847619Y-86304380D01*
X177942857Y-86256761D01*
X177990476Y-86209142D01*
X178038095Y-86113904D01*
X178085714Y-85923428D01*
X178085714Y-85685333D01*
X178038095Y-85494857D01*
X177990476Y-85399619D01*
X177942857Y-85352000D01*
X177847619Y-85304380D01*
X177133333Y-86256761D02*
X176990476Y-86304380D01*
X176752380Y-86304380D01*
X176657142Y-86256761D01*
X176609523Y-86209142D01*
X176561904Y-86113904D01*
X176561904Y-86018666D01*
X176609523Y-85923428D01*
X176657142Y-85875809D01*
X176752380Y-85828190D01*
X176942857Y-85780571D01*
X177038095Y-85732952D01*
X177085714Y-85685333D01*
X177133333Y-85590095D01*
X177133333Y-85494857D01*
X177085714Y-85399619D01*
X177038095Y-85352000D01*
X176942857Y-85304380D01*
X176704761Y-85304380D01*
X176561904Y-85352000D01*
X176180952Y-86256761D02*
X176038095Y-86304380D01*
X175800000Y-86304380D01*
X175704761Y-86256761D01*
X175657142Y-86209142D01*
X175609523Y-86113904D01*
X175609523Y-86018666D01*
X175657142Y-85923428D01*
X175704761Y-85875809D01*
X175800000Y-85828190D01*
X175990476Y-85780571D01*
X176085714Y-85732952D01*
X176133333Y-85685333D01*
X176180952Y-85590095D01*
X176180952Y-85494857D01*
X176133333Y-85399619D01*
X176085714Y-85352000D01*
X175990476Y-85304380D01*
X175752380Y-85304380D01*
X175609523Y-85352000D01*
X175180952Y-86304380D02*
X175180952Y-85304380D01*
X174942857Y-85304380D01*
X174800000Y-85352000D01*
X174704761Y-85447238D01*
X174657142Y-85542476D01*
X174609523Y-85732952D01*
X174609523Y-85875809D01*
X174657142Y-86066285D01*
X174704761Y-86161523D01*
X174800000Y-86256761D01*
X174942857Y-86304380D01*
X175180952Y-86304380D01*
X174180952Y-85923428D02*
X173419047Y-85923428D01*
X172419047Y-86304380D02*
X172990476Y-86304380D01*
X172704761Y-86304380D02*
X172704761Y-85304380D01*
X172800000Y-85447238D01*
X172895238Y-85542476D01*
X172990476Y-85590095D01*
X172085714Y-85304380D02*
X171466666Y-85304380D01*
X171800000Y-85685333D01*
X171657142Y-85685333D01*
X171561904Y-85732952D01*
X171514285Y-85780571D01*
X171466666Y-85875809D01*
X171466666Y-86113904D01*
X171514285Y-86209142D01*
X171561904Y-86256761D01*
X171657142Y-86304380D01*
X171942857Y-86304380D01*
X172038095Y-86256761D01*
X172085714Y-86209142D01*
X174902400Y-88911180D02*
X174902400Y-89149276D01*
X175140495Y-89054038D02*
X174902400Y-89149276D01*
X174664304Y-89054038D01*
X175045257Y-89339752D02*
X174902400Y-89149276D01*
X174759542Y-89339752D01*
X174902400Y-88911180D02*
X174902400Y-89149276D01*
X175140495Y-89054038D02*
X174902400Y-89149276D01*
X174664304Y-89054038D01*
X175045257Y-89339752D02*
X174902400Y-89149276D01*
X174759542Y-89339752D01*
M02*
