M48
INCH,TZ
T1C0.0157
T2C0.0250
T3C0.0315
T4C0.0354
T5C0.0394
T6C0.0579
%
G90
G05
T1
X42500Y-34000
X48000Y-33500
X50500Y-35000
X51000Y-38500
X53500Y-34000
X53500Y-42000
X55000Y-42500
X56500Y-43000
X57000Y-31000
X59500Y-30000
X62000Y-34500
X66000Y-34500
T2
X45091Y-36500
X45091Y-37000
X45091Y-37500
X48634Y-36500
X48634Y-37000
X48634Y-37500
X52177Y-36500
X52177Y-37000
X52177Y-37500
X55720Y-36500
X55720Y-37000
X55720Y-37500
X59264Y-36500
X59264Y-37000
X59264Y-37500
X62807Y-36500
X62807Y-37000
X62807Y-37500
X66350Y-36500
X66350Y-37000
X66350Y-37500
X69894Y-36500
X69894Y-37000
X69894Y-37500
T3
X43600Y-29200
X43600Y-32200
X47457Y-29200
X47457Y-32200
X51314Y-29200
X51314Y-32200
X53000Y-43000
X53000Y-46000
X55171Y-29200
X55171Y-32200
X57500Y-41000
X59029Y-29200
X59029Y-32200
X60500Y-41000
X62886Y-29200
X62886Y-32200
X66743Y-29200
X66743Y-32200
X70600Y-29200
X70600Y-32200
T4
X42500Y-27000
X43500Y-27000
X44500Y-27000
X46429Y-27000
X47429Y-27000
X48429Y-27000
X50357Y-27000
X51357Y-27000
X52357Y-27000
X54286Y-27000
X55286Y-27000
X56286Y-27000
X58214Y-27000
X59214Y-27000
X60214Y-27000
X62143Y-27000
X63143Y-27000
X64143Y-27000
X66071Y-27000
X67071Y-27000
X68071Y-27000
X70000Y-27000
X71000Y-27000
X72000Y-27000
T5
X49600Y-33400
X49600Y-39400
X50600Y-33400
X50600Y-39400
X51600Y-33400
X51600Y-39400
X52600Y-33400
X52600Y-39400
X53600Y-33400
X53600Y-39400
X54600Y-33400
X54600Y-39400
X55600Y-33400
X55600Y-39400
X56600Y-33400
X56600Y-39400
X57600Y-33400
X57600Y-39400
X58600Y-33400
X58600Y-39400
X59600Y-33400
X59600Y-39400
X60600Y-33400
X60600Y-39400
X61600Y-33400
X61600Y-39400
X62600Y-33400
X62600Y-39400
X63600Y-33400
X63600Y-39400
X68000Y-40000
X69000Y-40000
X70000Y-40000
T6
X49326Y-44000
X64274Y-44000
T0
M30
