G04 #@! TF.GenerationSoftware,KiCad,Pcbnew,(5.1.10)-1*
G04 #@! TF.CreationDate,2021-07-19T16:23:16-07:00*
G04 #@! TF.ProjectId,1spareparts,31737061-7265-4706-9172-74732e6b6963,rev?*
G04 #@! TF.SameCoordinates,Original*
G04 #@! TF.FileFunction,Copper,L2,Bot*
G04 #@! TF.FilePolarity,Positive*
%FSLAX46Y46*%
G04 Gerber Fmt 4.6, Leading zero omitted, Abs format (unit mm)*
G04 Created by KiCad (PCBNEW (5.1.10)-1) date 2021-07-19 16:23:16*
%MOMM*%
%LPD*%
G01*
G04 APERTURE LIST*
G04 #@! TA.AperFunction,SMDPad,CuDef*
%ADD10R,1.524000X0.558800*%
G04 #@! TD*
G04 #@! TA.AperFunction,ComponentPad*
%ADD11C,2.205000*%
G04 #@! TD*
G04 #@! TA.AperFunction,ComponentPad*
%ADD12R,1.600000X1.600000*%
G04 #@! TD*
G04 #@! TA.AperFunction,ComponentPad*
%ADD13O,1.600000X1.600000*%
G04 #@! TD*
G04 #@! TA.AperFunction,ComponentPad*
%ADD14O,1.500000X2.300000*%
G04 #@! TD*
G04 #@! TA.AperFunction,ComponentPad*
%ADD15R,1.500000X2.300000*%
G04 #@! TD*
G04 #@! TA.AperFunction,ComponentPad*
%ADD16R,1.800000X1.800000*%
G04 #@! TD*
G04 #@! TA.AperFunction,ComponentPad*
%ADD17C,1.800000*%
G04 #@! TD*
G04 #@! TA.AperFunction,ComponentPad*
%ADD18C,1.143000*%
G04 #@! TD*
G04 #@! TA.AperFunction,ComponentPad*
%ADD19C,1.600000*%
G04 #@! TD*
G04 #@! TA.AperFunction,ViaPad*
%ADD20C,0.800000*%
G04 #@! TD*
G04 #@! TA.AperFunction,Conductor*
%ADD21C,0.250000*%
G04 #@! TD*
G04 APERTURE END LIST*
D10*
X111044796Y-87630000D03*
X111044796Y-86360000D03*
X111044796Y-85090000D03*
X111044796Y-83820000D03*
X116332000Y-83820000D03*
X116332000Y-85090000D03*
X116332000Y-86360000D03*
X116332000Y-87630000D03*
D11*
X163257000Y-111760000D03*
X125287000Y-111760000D03*
D12*
X125984000Y-84836000D03*
D13*
X159004000Y-100076000D03*
X128524000Y-84836000D03*
X156464000Y-100076000D03*
X131064000Y-84836000D03*
X153924000Y-100076000D03*
X133604000Y-84836000D03*
X151384000Y-100076000D03*
X136144000Y-84836000D03*
X148844000Y-100076000D03*
X138684000Y-84836000D03*
X146304000Y-100076000D03*
X141224000Y-84836000D03*
X143764000Y-100076000D03*
X143764000Y-84836000D03*
X141224000Y-100076000D03*
X146304000Y-84836000D03*
X138684000Y-100076000D03*
X148844000Y-84836000D03*
X136144000Y-100076000D03*
X151384000Y-84836000D03*
X133604000Y-100076000D03*
X153924000Y-84836000D03*
X131064000Y-100076000D03*
X156464000Y-84836000D03*
X128524000Y-100076000D03*
X159004000Y-84836000D03*
X125984000Y-100076000D03*
X161544000Y-84836000D03*
X161544000Y-100076000D03*
D14*
X177800000Y-101600000D03*
X175260000Y-101600000D03*
D15*
X172720000Y-101600000D03*
D16*
X177800000Y-68580000D03*
D17*
X180340000Y-68580000D03*
X182880000Y-68580000D03*
D16*
X107950000Y-68580000D03*
D17*
X110490000Y-68580000D03*
X113030000Y-68580000D03*
X123008571Y-68580000D03*
X120468571Y-68580000D03*
D16*
X117928571Y-68580000D03*
X127907142Y-68580000D03*
D17*
X130447142Y-68580000D03*
X132987142Y-68580000D03*
X142965713Y-68580000D03*
X140425713Y-68580000D03*
D16*
X137885713Y-68580000D03*
X147864284Y-68580000D03*
D17*
X150404284Y-68580000D03*
X152944284Y-68580000D03*
X162922855Y-68580000D03*
X160382855Y-68580000D03*
D16*
X157842855Y-68580000D03*
D17*
X172901426Y-68580000D03*
X170361426Y-68580000D03*
D16*
X167821426Y-68580000D03*
D10*
X180443602Y-87757000D03*
X180443602Y-86487000D03*
X180443602Y-85217000D03*
X180443602Y-83947000D03*
X175156398Y-83947000D03*
X175156398Y-85217000D03*
X175156398Y-86487000D03*
X175156398Y-87757000D03*
D12*
X134620000Y-116840000D03*
D13*
X134620000Y-109220000D03*
X153670000Y-104140000D03*
D12*
X146050000Y-104140000D03*
D18*
X159530000Y-92710000D03*
X159530000Y-93980000D03*
X159530000Y-95250000D03*
X168530000Y-95250000D03*
X168530000Y-93980000D03*
X168530000Y-92710000D03*
X132530000Y-92710000D03*
X132530000Y-93980000D03*
X132530000Y-95250000D03*
X177530000Y-95250000D03*
X177530000Y-93980000D03*
X177530000Y-92710000D03*
X141530000Y-92710000D03*
X141530000Y-93980000D03*
X141530000Y-95250000D03*
X123530000Y-95250000D03*
X123530000Y-93980000D03*
X123530000Y-92710000D03*
X150530000Y-92710000D03*
X150530000Y-93980000D03*
X150530000Y-95250000D03*
X114530000Y-95250000D03*
X114530000Y-93980000D03*
X114530000Y-92710000D03*
D13*
X110744000Y-81788000D03*
D19*
X110744000Y-74168000D03*
X120541142Y-74168000D03*
D13*
X120541142Y-81788000D03*
X130338284Y-81788000D03*
D19*
X130338284Y-74168000D03*
X140135426Y-74168000D03*
D13*
X140135426Y-81788000D03*
X149932568Y-81788000D03*
D19*
X149932568Y-74168000D03*
X159729710Y-74168000D03*
D13*
X159729710Y-81788000D03*
X169526852Y-81788000D03*
D19*
X169526852Y-74168000D03*
X179324000Y-74168000D03*
D13*
X179324000Y-81788000D03*
D20*
X129540000Y-97790000D03*
X144780000Y-78740000D03*
X143510000Y-109220000D03*
X167640000Y-87630000D03*
X157480000Y-87630000D03*
X135890000Y-86360000D03*
X151130000Y-76200000D03*
X139700000Y-107950000D03*
X135890000Y-106680000D03*
X107950000Y-86360000D03*
X128270000Y-88900000D03*
X121920000Y-85090000D03*
D21*
X111760000Y-87630000D02*
X111044796Y-87630000D01*
X175260000Y-102870000D02*
X175260000Y-101600000D01*
X175156398Y-83947000D02*
X175156398Y-85217000D01*
X175156398Y-87757000D02*
X177673000Y-87757000D01*
X177673000Y-87757000D02*
X177800000Y-87630000D01*
X177800000Y-87630000D02*
X177800000Y-83820000D01*
X175283398Y-83820000D02*
X175156398Y-83947000D01*
X177800000Y-83820000D02*
X175283398Y-83820000D01*
X175156398Y-87757000D02*
X175156398Y-93876398D01*
X175260000Y-93980000D02*
X177530000Y-93980000D01*
X175156398Y-93876398D02*
X175260000Y-93980000D01*
X111044796Y-87630000D02*
X111044796Y-93264796D01*
X111760000Y-93980000D02*
X114530000Y-93980000D01*
X111044796Y-93264796D02*
X111760000Y-93980000D01*
X111044796Y-87630000D02*
X113030000Y-87630000D01*
X113030000Y-87630000D02*
X113030000Y-85090000D01*
X113030000Y-85090000D02*
X111760000Y-85090000D01*
X111760000Y-85090000D02*
X111044796Y-85090000D01*
X133604000Y-100076000D02*
X129540000Y-96012000D01*
X129540000Y-96012000D02*
X129540000Y-92710000D01*
X129540000Y-92710000D02*
X132530000Y-92710000D01*
X123530000Y-92710000D02*
X129540000Y-92710000D01*
X114530000Y-95250000D02*
X116840000Y-95250000D01*
X116840000Y-95250000D02*
X123190000Y-101600000D01*
X152400000Y-101600000D02*
X153924000Y-100076000D01*
X123190000Y-101600000D02*
X152400000Y-101600000D01*
X107950000Y-67430000D02*
X110610000Y-64770000D01*
X107950000Y-68580000D02*
X107950000Y-67430000D01*
X164011426Y-64770000D02*
X167821426Y-68580000D01*
X137885713Y-65314287D02*
X138430000Y-64770000D01*
X137885713Y-68580000D02*
X137885713Y-65314287D01*
X138430000Y-64770000D02*
X164011426Y-64770000D01*
X110610000Y-64770000D02*
X138430000Y-64770000D01*
X137885713Y-83094287D02*
X136144000Y-84836000D01*
X137885713Y-68580000D02*
X137885713Y-83094287D01*
X123530000Y-95250000D02*
X127000000Y-95250000D01*
X127000000Y-95250000D02*
X129540000Y-97790000D01*
X142965713Y-80554287D02*
X138684000Y-84836000D01*
X142965713Y-68580000D02*
X142965713Y-80554287D01*
X146304000Y-100024000D02*
X146304000Y-100076000D01*
X141530000Y-95250000D02*
X146304000Y-100024000D01*
X138430000Y-87630000D02*
X141224000Y-84836000D01*
X117928571Y-68580000D02*
X117928571Y-74748571D01*
X117928571Y-74748571D02*
X124460000Y-81280000D01*
X124460000Y-81280000D02*
X124460000Y-87630000D01*
X124460000Y-87630000D02*
X127000000Y-87630000D01*
X127000000Y-87630000D02*
X138430000Y-87630000D01*
X126592998Y-87630000D02*
X127000000Y-87630000D01*
X147864284Y-78195716D02*
X141224000Y-84836000D01*
X147864284Y-68580000D02*
X147864284Y-78195716D01*
X144780000Y-71664284D02*
X147864284Y-68580000D01*
X144780000Y-78740000D02*
X144780000Y-71664284D01*
X177530000Y-95250000D02*
X177530000Y-98790000D01*
X177530000Y-98790000D02*
X180340000Y-101600000D01*
X180340000Y-101600000D02*
X180340000Y-107950000D01*
X180340000Y-107950000D02*
X179070000Y-109220000D01*
X179070000Y-109220000D02*
X143510000Y-109220000D01*
X167640000Y-87630000D02*
X157480000Y-87630000D01*
X157480000Y-87630000D02*
X157480000Y-87630000D01*
X127109001Y-85086003D02*
X128382998Y-86360000D01*
X127109001Y-72680430D02*
X127109001Y-85086003D01*
X123008571Y-68580000D02*
X127109001Y-72680430D01*
X128382998Y-86360000D02*
X129540000Y-86360000D01*
X129540000Y-86360000D02*
X134620000Y-86360000D01*
X134620000Y-86360000D02*
X135890000Y-86360000D01*
X135890000Y-86360000D02*
X135890000Y-86360000D01*
X152944284Y-72821286D02*
X149860000Y-75905570D01*
X152944284Y-68580000D02*
X152944284Y-72821286D01*
X149860000Y-75905570D02*
X149860000Y-77470000D01*
X143764000Y-83566000D02*
X143764000Y-84836000D01*
X149860000Y-77470000D02*
X143764000Y-83566000D01*
X136398000Y-95250000D02*
X141224000Y-100076000D01*
X132530000Y-95250000D02*
X136398000Y-95250000D01*
X127907142Y-68580000D02*
X127907142Y-67672858D01*
X146304000Y-83751566D02*
X146304000Y-84836000D01*
X157842855Y-68580000D02*
X157842855Y-72212711D01*
X153670000Y-76200000D02*
X153762783Y-76292783D01*
X151130000Y-76200000D02*
X153670000Y-76200000D01*
X153762783Y-76292783D02*
X146304000Y-83751566D01*
X157842855Y-72212711D02*
X153762783Y-76292783D01*
X168530000Y-95250000D02*
X168530000Y-107060000D01*
X168530000Y-107060000D02*
X167640000Y-107950000D01*
X167640000Y-107950000D02*
X139700000Y-107950000D01*
X151130000Y-82550000D02*
X148844000Y-84836000D01*
X153012712Y-82550000D02*
X151130000Y-82550000D01*
X162922855Y-72639857D02*
X153012712Y-82550000D01*
X162922855Y-68580000D02*
X162922855Y-72639857D01*
X135890000Y-100330000D02*
X136144000Y-100076000D01*
X159530000Y-95250000D02*
X163830000Y-95250000D01*
X163830000Y-95250000D02*
X166370000Y-97790000D01*
X166370000Y-97790000D02*
X166370000Y-104292802D01*
X166370000Y-104292802D02*
X166370000Y-106680000D01*
X166370000Y-106680000D02*
X135890000Y-106680000D01*
X111044796Y-86360000D02*
X110032796Y-86360000D01*
X110032796Y-86360000D02*
X107950000Y-86360000D01*
X147320000Y-88900000D02*
X151384000Y-84836000D01*
X128270000Y-88900000D02*
X147320000Y-88900000D01*
X153924000Y-87376000D02*
X153924000Y-84836000D01*
X123190000Y-90170000D02*
X151130000Y-90170000D01*
X123190000Y-85286998D02*
X123190000Y-90170000D01*
X151130000Y-90170000D02*
X153924000Y-87376000D01*
X111044796Y-83820000D02*
X109220000Y-83820000D01*
X109220000Y-83820000D02*
X109220000Y-80010000D01*
X122268001Y-84364999D02*
X123190000Y-85286998D01*
X118503401Y-84364999D02*
X122268001Y-84364999D01*
X114148402Y-80010000D02*
X118503401Y-84364999D01*
X109220000Y-80010000D02*
X114148402Y-80010000D01*
X175156398Y-86487000D02*
X160147000Y-86487000D01*
X159004000Y-85344000D02*
X159004000Y-84836000D01*
X160147000Y-86487000D02*
X159004000Y-85344000D01*
X116688402Y-85090000D02*
X116332000Y-85090000D01*
X116332000Y-85090000D02*
X121920000Y-85090000D01*
X115320000Y-87630000D02*
X114300000Y-86610000D01*
X116332000Y-87630000D02*
X115320000Y-87630000D01*
X114300000Y-86610000D02*
X114300000Y-82550000D01*
X113538000Y-81788000D02*
X110744000Y-81788000D01*
X114300000Y-82550000D02*
X113538000Y-81788000D01*
X180570602Y-87630000D02*
X180443602Y-87757000D01*
X181455602Y-87757000D02*
X182880000Y-86332602D01*
X180443602Y-87757000D02*
X181455602Y-87757000D01*
X182880000Y-86332602D02*
X182880000Y-82550000D01*
X180086000Y-82550000D02*
X179324000Y-81788000D01*
X182880000Y-82550000D02*
X180086000Y-82550000D01*
M02*
