G04 #@! TF.GenerationSoftware,KiCad,Pcbnew,(5.1.10)-1*
G04 #@! TF.CreationDate,2021-07-19T16:23:16-07:00*
G04 #@! TF.ProjectId,1spareparts,31737061-7265-4706-9172-74732e6b6963,rev?*
G04 #@! TF.SameCoordinates,Original*
G04 #@! TF.FileFunction,Copper,L1,Top*
G04 #@! TF.FilePolarity,Positive*
%FSLAX46Y46*%
G04 Gerber Fmt 4.6, Leading zero omitted, Abs format (unit mm)*
G04 Created by KiCad (PCBNEW (5.1.10)-1) date 2021-07-19 16:23:16*
%MOMM*%
%LPD*%
G01*
G04 APERTURE LIST*
G04 #@! TA.AperFunction,ComponentPad*
%ADD10C,2.205000*%
G04 #@! TD*
G04 #@! TA.AperFunction,ComponentPad*
%ADD11R,1.600000X1.600000*%
G04 #@! TD*
G04 #@! TA.AperFunction,ComponentPad*
%ADD12O,1.600000X1.600000*%
G04 #@! TD*
G04 #@! TA.AperFunction,ComponentPad*
%ADD13O,1.500000X2.300000*%
G04 #@! TD*
G04 #@! TA.AperFunction,ComponentPad*
%ADD14R,1.500000X2.300000*%
G04 #@! TD*
G04 #@! TA.AperFunction,ComponentPad*
%ADD15R,1.800000X1.800000*%
G04 #@! TD*
G04 #@! TA.AperFunction,ComponentPad*
%ADD16C,1.800000*%
G04 #@! TD*
G04 #@! TA.AperFunction,SMDPad,CuDef*
%ADD17R,0.889000X0.952500*%
G04 #@! TD*
G04 #@! TA.AperFunction,ComponentPad*
%ADD18C,1.143000*%
G04 #@! TD*
G04 #@! TA.AperFunction,ComponentPad*
%ADD19C,1.600000*%
G04 #@! TD*
G04 #@! TA.AperFunction,ViaPad*
%ADD20C,0.800000*%
G04 #@! TD*
G04 #@! TA.AperFunction,Conductor*
%ADD21C,0.250000*%
G04 #@! TD*
G04 APERTURE END LIST*
D10*
X163257000Y-111760000D03*
X125287000Y-111760000D03*
D11*
X125984000Y-84836000D03*
D12*
X159004000Y-100076000D03*
X128524000Y-84836000D03*
X156464000Y-100076000D03*
X131064000Y-84836000D03*
X153924000Y-100076000D03*
X133604000Y-84836000D03*
X151384000Y-100076000D03*
X136144000Y-84836000D03*
X148844000Y-100076000D03*
X138684000Y-84836000D03*
X146304000Y-100076000D03*
X141224000Y-84836000D03*
X143764000Y-100076000D03*
X143764000Y-84836000D03*
X141224000Y-100076000D03*
X146304000Y-84836000D03*
X138684000Y-100076000D03*
X148844000Y-84836000D03*
X136144000Y-100076000D03*
X151384000Y-84836000D03*
X133604000Y-100076000D03*
X153924000Y-84836000D03*
X131064000Y-100076000D03*
X156464000Y-84836000D03*
X128524000Y-100076000D03*
X159004000Y-84836000D03*
X125984000Y-100076000D03*
X161544000Y-84836000D03*
X161544000Y-100076000D03*
D13*
X177800000Y-101600000D03*
X175260000Y-101600000D03*
D14*
X172720000Y-101600000D03*
D15*
X177800000Y-68580000D03*
D16*
X180340000Y-68580000D03*
X182880000Y-68580000D03*
D15*
X107950000Y-68580000D03*
D16*
X110490000Y-68580000D03*
X113030000Y-68580000D03*
X123008571Y-68580000D03*
X120468571Y-68580000D03*
D15*
X117928571Y-68580000D03*
X127907142Y-68580000D03*
D16*
X130447142Y-68580000D03*
X132987142Y-68580000D03*
X142965713Y-68580000D03*
X140425713Y-68580000D03*
D15*
X137885713Y-68580000D03*
X147864284Y-68580000D03*
D16*
X150404284Y-68580000D03*
X152944284Y-68580000D03*
X162922855Y-68580000D03*
X160382855Y-68580000D03*
D15*
X157842855Y-68580000D03*
D17*
X154432000Y-111848900D03*
X154432000Y-113792000D03*
D16*
X172901426Y-68580000D03*
X170361426Y-68580000D03*
D15*
X167821426Y-68580000D03*
D11*
X134620000Y-116840000D03*
D12*
X134620000Y-109220000D03*
X153670000Y-104140000D03*
D11*
X146050000Y-104140000D03*
D18*
X159530000Y-92710000D03*
X159530000Y-93980000D03*
X159530000Y-95250000D03*
X168530000Y-95250000D03*
X168530000Y-93980000D03*
X168530000Y-92710000D03*
X132530000Y-92710000D03*
X132530000Y-93980000D03*
X132530000Y-95250000D03*
X177530000Y-95250000D03*
X177530000Y-93980000D03*
X177530000Y-92710000D03*
X141530000Y-92710000D03*
X141530000Y-93980000D03*
X141530000Y-95250000D03*
X123530000Y-95250000D03*
X123530000Y-93980000D03*
X123530000Y-92710000D03*
X150530000Y-92710000D03*
X150530000Y-93980000D03*
X150530000Y-95250000D03*
X114530000Y-95250000D03*
X114530000Y-93980000D03*
X114530000Y-92710000D03*
D12*
X110744000Y-81788000D03*
D19*
X110744000Y-74168000D03*
X120541142Y-74168000D03*
D12*
X120541142Y-81788000D03*
X130338284Y-81788000D03*
D19*
X130338284Y-74168000D03*
X140135426Y-74168000D03*
D12*
X140135426Y-81788000D03*
X149932568Y-81788000D03*
D19*
X149932568Y-74168000D03*
X159729710Y-74168000D03*
D12*
X159729710Y-81788000D03*
X169526852Y-81788000D03*
D19*
X169526852Y-74168000D03*
X179324000Y-74168000D03*
D12*
X179324000Y-81788000D03*
D20*
X129540000Y-97790000D03*
X144780000Y-78740000D03*
X143510000Y-109220000D03*
X167640000Y-87630000D03*
X157480000Y-87630000D03*
X135890000Y-86360000D03*
X151130000Y-76200000D03*
X139700000Y-107950000D03*
X135890000Y-106680000D03*
X107950000Y-86360000D03*
X128270000Y-88900000D03*
X121920000Y-85090000D03*
D21*
X170180000Y-104140000D02*
X172720000Y-101600000D01*
X153670000Y-104140000D02*
X170180000Y-104140000D01*
X175260000Y-101600000D02*
X175260000Y-93980000D01*
X175260000Y-93980000D02*
X177530000Y-93980000D01*
X168530000Y-93980000D02*
X175260000Y-93980000D01*
X168530000Y-93980000D02*
X159530000Y-93980000D01*
X159530000Y-93980000D02*
X150530000Y-93980000D01*
X150530000Y-93980000D02*
X141530000Y-93980000D01*
X114473178Y-93980000D02*
X114530000Y-93980000D01*
X128524000Y-94234000D02*
X128270000Y-93980000D01*
X128524000Y-100076000D02*
X128524000Y-94234000D01*
X128270000Y-93980000D02*
X114473178Y-93980000D01*
X141530000Y-93980000D02*
X128270000Y-93980000D01*
X128524000Y-108523000D02*
X125287000Y-111760000D01*
X128524000Y-100076000D02*
X128524000Y-108523000D01*
X133604000Y-84836000D02*
X133604000Y-87376000D01*
X128270000Y-92710000D02*
X128270000Y-93980000D01*
X133604000Y-87376000D02*
X128270000Y-92710000D01*
X129221000Y-109220000D02*
X128524000Y-108523000D01*
X134620000Y-109220000D02*
X129221000Y-109220000D01*
X177800000Y-101600000D02*
X181610000Y-101600000D01*
X181610000Y-101600000D02*
X181610000Y-92710000D01*
X181610000Y-92710000D02*
X177530000Y-92710000D01*
X132530000Y-92710000D02*
X141530000Y-92710000D01*
X141530000Y-92710000D02*
X150530000Y-92710000D01*
X150530000Y-92710000D02*
X159530000Y-92710000D01*
X159530000Y-92710000D02*
X168530000Y-92710000D01*
X168530000Y-92710000D02*
X177530000Y-92710000D01*
X114530000Y-92710000D02*
X123530000Y-92710000D01*
X150530000Y-99222000D02*
X151384000Y-100076000D01*
X150530000Y-95250000D02*
X150530000Y-99222000D01*
X135890000Y-84582000D02*
X136144000Y-84836000D01*
X146558000Y-97790000D02*
X148844000Y-100076000D01*
X129540000Y-97790000D02*
X146558000Y-97790000D01*
X113030000Y-68580000D02*
X115570000Y-66040000D01*
X170361426Y-66040000D02*
X172901426Y-68580000D01*
X142965713Y-66584287D02*
X143510000Y-66040000D01*
X142965713Y-68580000D02*
X142965713Y-66584287D01*
X143510000Y-66040000D02*
X170361426Y-66040000D01*
X115570000Y-66040000D02*
X143510000Y-66040000D01*
X176574999Y-69805001D02*
X176574999Y-76155001D01*
X177800000Y-68580000D02*
X176574999Y-69805001D01*
X176574999Y-76155001D02*
X173990000Y-78740000D01*
X173990000Y-78740000D02*
X144780000Y-78740000D01*
X144780000Y-78740000D02*
X144780000Y-78740000D01*
X143510000Y-100330000D02*
X143764000Y-100076000D01*
X143510000Y-109220000D02*
X143510000Y-100330000D01*
X182880000Y-81061998D02*
X176311998Y-87630000D01*
X182880000Y-68580000D02*
X182880000Y-81061998D01*
X176311998Y-87630000D02*
X167640000Y-87630000D01*
X167640000Y-87630000D02*
X167640000Y-87630000D01*
X146558000Y-87630000D02*
X143764000Y-84836000D01*
X157480000Y-87630000D02*
X146558000Y-87630000D01*
X142240000Y-86360000D02*
X143764000Y-84836000D01*
X135890000Y-86360000D02*
X142240000Y-86360000D01*
X127907142Y-73401860D02*
X130705282Y-76200000D01*
X127907142Y-68580000D02*
X127907142Y-73401860D01*
X130705282Y-76200000D02*
X151130000Y-76200000D01*
X151130000Y-76200000D02*
X151130000Y-76200000D01*
X139700000Y-101092000D02*
X138684000Y-100076000D01*
X139700000Y-107950000D02*
X139700000Y-101092000D01*
X138427351Y-75293001D02*
X163466999Y-75293001D01*
X132987142Y-69852792D02*
X138427351Y-75293001D01*
X132987142Y-68580000D02*
X132987142Y-69852792D01*
X163466999Y-75293001D02*
X165100000Y-73660000D01*
X165100000Y-70757145D02*
X162922855Y-68580000D01*
X165100000Y-73660000D02*
X165100000Y-70757145D01*
X135890000Y-100330000D02*
X136144000Y-100076000D01*
X135890000Y-106680000D02*
X135890000Y-100330000D01*
X151130000Y-85090000D02*
X151384000Y-84836000D01*
X107950000Y-86360000D02*
X107950000Y-88900000D01*
X107950000Y-88900000D02*
X128270000Y-88900000D01*
X134620000Y-116840000D02*
X176530000Y-116840000D01*
X176530000Y-116840000D02*
X182880000Y-110490000D01*
X182880000Y-93343590D02*
X178436410Y-88900000D01*
X182880000Y-110490000D02*
X182880000Y-93343590D01*
X160528000Y-88900000D02*
X156464000Y-84836000D01*
X178436410Y-88900000D02*
X160528000Y-88900000D01*
X161225000Y-113792000D02*
X163257000Y-111760000D01*
X154432000Y-113792000D02*
X161225000Y-113792000D01*
X153758900Y-111848900D02*
X146050000Y-104140000D01*
X154432000Y-111848900D02*
X153758900Y-111848900D01*
X123299001Y-83710999D02*
X121920000Y-85090000D01*
X132986999Y-82913001D02*
X132189001Y-83710999D01*
X139010425Y-82913001D02*
X132986999Y-82913001D01*
X132189001Y-83710999D02*
X123299001Y-83710999D01*
X140135426Y-81788000D02*
X139010425Y-82913001D01*
X140135426Y-81788000D02*
X149932568Y-81788000D01*
X149932568Y-81788000D02*
X159729710Y-81788000D01*
X130338284Y-81788000D02*
X120541142Y-81788000D01*
X120541142Y-81788000D02*
X110744000Y-81788000D01*
X179324000Y-81788000D02*
X169526852Y-81788000D01*
X110744000Y-68834000D02*
X110490000Y-68580000D01*
X110490000Y-73914000D02*
X110744000Y-74168000D01*
X110490000Y-68580000D02*
X110490000Y-73914000D01*
X120541142Y-68652571D02*
X120468571Y-68580000D01*
X120468571Y-74095429D02*
X120541142Y-74168000D01*
X120468571Y-68580000D02*
X120468571Y-74095429D01*
X130338284Y-68688858D02*
X130447142Y-68580000D01*
X130447142Y-74059142D02*
X130338284Y-74168000D01*
X130447142Y-68580000D02*
X130447142Y-74059142D01*
X140135426Y-68870287D02*
X140425713Y-68580000D01*
X140425713Y-73877713D02*
X140135426Y-74168000D01*
X140425713Y-68580000D02*
X140425713Y-73877713D01*
X149932568Y-69051716D02*
X150404284Y-68580000D01*
X150404284Y-73696284D02*
X149932568Y-74168000D01*
X150404284Y-68580000D02*
X150404284Y-73696284D01*
X160382855Y-73514855D02*
X159729710Y-74168000D01*
X160382855Y-68580000D02*
X160382855Y-73514855D01*
X170361426Y-73333426D02*
X169526852Y-74168000D01*
X170361426Y-68580000D02*
X170361426Y-73333426D01*
X180340000Y-73152000D02*
X179324000Y-74168000D01*
X180340000Y-68580000D02*
X180340000Y-73152000D01*
M02*
