%TF.GenerationSoftware,KiCad,Pcbnew,(5.1.10)-1*%
%TF.CreationDate,2021-08-05T18:33:57-07:00*%
%TF.ProjectId,SimpleCableTesterStatics,53696d70-6c65-4436-9162-6c6554657374,rev?*%
%TF.SameCoordinates,Original*%
%TF.FileFunction,Copper,L2,Bot*%
%TF.FilePolarity,Positive*%
%FSLAX46Y46*%
G04 Gerber Fmt 4.6, Leading zero omitted, Abs format (unit mm)*
G04 Created by KiCad (PCBNEW (5.1.10)-1) date 2021-08-05 18:33:57*
%MOMM*%
%LPD*%
G01*
G04 APERTURE LIST*
%TA.AperFunction,ComponentPad*%
%ADD10R,2.030000X1.730000*%
%TD*%
%TA.AperFunction,ComponentPad*%
%ADD11O,2.030000X1.730000*%
%TD*%
%TA.AperFunction,ComponentPad*%
%ADD12C,2.205000*%
%TD*%
%TA.AperFunction,ComponentPad*%
%ADD13O,1.600000X1.600000*%
%TD*%
%TA.AperFunction,ComponentPad*%
%ADD14C,1.600000*%
%TD*%
%TA.AperFunction,ComponentPad*%
%ADD15R,1.600000X1.600000*%
%TD*%
%TA.AperFunction,ComponentPad*%
%ADD16R,1.800000X1.800000*%
%TD*%
%TA.AperFunction,ComponentPad*%
%ADD17C,1.800000*%
%TD*%
%TA.AperFunction,ComponentPad*%
%ADD18O,4.000000X4.000000*%
%TD*%
%TA.AperFunction,ComponentPad*%
%ADD19R,4.000000X4.000000*%
%TD*%
%TA.AperFunction,ComponentPad*%
%ADD20O,3.000000X3.000000*%
%TD*%
%TA.AperFunction,ViaPad*%
%ADD21C,0.800000*%
%TD*%
%TA.AperFunction,Conductor*%
%ADD22C,0.250000*%
%TD*%
G04 APERTURE END LIST*
D10*
%TO.P,U1,1*%
%TO.N,Net-(D4-Pad2)*%
X114808000Y-119888000D03*
D11*
%TO.P,U1,3*%
%TO.N,GND*%
X114808000Y-117348000D03*
%TO.P,U1,2*%
%TO.N,5V*%
X114808000Y-114808000D03*
%TD*%
D12*
%TO.P,.1,2*%
%TO.N,Net-(.1-Pad2)*%
X129351000Y-94996000D03*
%TO.P,.1,1*%
%TO.N,GND*%
X167321000Y-94996000D03*
%TD*%
D13*
%TO.P,3-1V1,2*%
%TO.N,Read1V*%
X181864000Y-75184000D03*
D14*
%TO.P,3-1V1,1*%
%TO.N,Read3V*%
X189484000Y-75184000D03*
%TD*%
%TO.P,3-1V2,1*%
%TO.N,Net-(3-1V2-Pad1)*%
X181864000Y-123952000D03*
D13*
%TO.P,3-1V2,2*%
%TO.N,GND*%
X189484000Y-123952000D03*
%TD*%
D14*
%TO.P,3-2V1,1*%
%TO.N,Read3V*%
X181864000Y-132080000D03*
D13*
%TO.P,3-2V1,2*%
%TO.N,Read2V*%
X189484000Y-132080000D03*
%TD*%
%TO.P,3-2V2,2*%
%TO.N,GND*%
X181864000Y-140208000D03*
D14*
%TO.P,3-2V2,1*%
%TO.N,Net-(3-2V2-Pad1)*%
X189484000Y-140208000D03*
%TD*%
%TO.P,3.3-3V1,1*%
%TO.N,3.3V*%
X181864000Y-99568000D03*
D13*
%TO.P,3.3-3V1,2*%
%TO.N,Read3V*%
X189484000Y-99568000D03*
%TD*%
D14*
%TO.P,3.3-3V2,1*%
%TO.N,Read3V*%
X181864000Y-107696000D03*
D13*
%TO.P,3.3-3V2,2*%
%TO.N,GND*%
X189484000Y-107696000D03*
%TD*%
%TO.P,5-4V1,2*%
%TO.N,GND*%
X189484000Y-83312000D03*
D14*
%TO.P,5-4V1,1*%
%TO.N,Net-(5-4V1-Pad1)*%
X181864000Y-83312000D03*
%TD*%
%TO.P,5-4V2,1*%
%TO.N,5V*%
X181864000Y-91440000D03*
D13*
%TO.P,5-4V2,2*%
%TO.N,Read4V*%
X189484000Y-91440000D03*
%TD*%
D15*
%TO.P,A1,1*%
%TO.N,N/C*%
X129540000Y-122428000D03*
D13*
%TO.P,A1,17*%
%TO.N,3.3V*%
X162560000Y-107188000D03*
%TO.P,A1,2*%
%TO.N,N/C*%
X132080000Y-122428000D03*
%TO.P,A1,18*%
X160020000Y-107188000D03*
%TO.P,A1,3*%
X134620000Y-122428000D03*
%TO.P,A1,19*%
%TO.N,Read5V*%
X157480000Y-107188000D03*
%TO.P,A1,4*%
%TO.N,GND*%
X137160000Y-122428000D03*
%TO.P,A1,20*%
%TO.N,Read4V*%
X154940000Y-107188000D03*
%TO.P,A1,5*%
%TO.N,BIAS*%
X139700000Y-122428000D03*
%TO.P,A1,21*%
%TO.N,Read3V*%
X152400000Y-107188000D03*
%TO.P,A1,6*%
%TO.N,R+*%
X142240000Y-122428000D03*
%TO.P,A1,22*%
%TO.N,Read2V*%
X149860000Y-107188000D03*
%TO.P,A1,7*%
%TO.N,L+*%
X144780000Y-122428000D03*
%TO.P,A1,23*%
%TO.N,Read1V*%
X147320000Y-107188000D03*
%TO.P,A1,8*%
%TO.N,L-*%
X147320000Y-122428000D03*
%TO.P,A1,24*%
%TO.N,N/C*%
X144780000Y-107188000D03*
%TO.P,A1,9*%
%TO.N,R-*%
X149860000Y-122428000D03*
%TO.P,A1,25*%
%TO.N,N/C*%
X142240000Y-107188000D03*
%TO.P,A1,10*%
X152400000Y-122428000D03*
%TO.P,A1,26*%
X139700000Y-107188000D03*
%TO.P,A1,11*%
X154940000Y-122428000D03*
%TO.P,A1,27*%
%TO.N,5V*%
X137160000Y-107188000D03*
%TO.P,A1,12*%
%TO.N,N/C*%
X157480000Y-122428000D03*
%TO.P,A1,28*%
X134620000Y-107188000D03*
%TO.P,A1,13*%
X160020000Y-122428000D03*
%TO.P,A1,29*%
%TO.N,GND*%
X132080000Y-107188000D03*
%TO.P,A1,14*%
%TO.N,N/C*%
X162560000Y-122428000D03*
%TO.P,A1,30*%
X129540000Y-107188000D03*
%TO.P,A1,15*%
X165100000Y-122428000D03*
%TO.P,A1,16*%
X165100000Y-107188000D03*
%TD*%
D16*
%TO.P,Bias.1,1*%
%TO.N,GND*%
X119380000Y-143256000D03*
D17*
%TO.P,Bias.1,2*%
%TO.N,Net-(Bias.1-Pad2)*%
X121920000Y-143256000D03*
%TD*%
%TO.P,R+.2,2*%
%TO.N,Net-(R+.2-Pad2)*%
X133858000Y-143256000D03*
D16*
%TO.P,R+.2,1*%
%TO.N,GND*%
X131318000Y-143256000D03*
%TD*%
%TO.P,L+.3,1*%
%TO.N,GND*%
X143256000Y-143256000D03*
D17*
%TO.P,L+.3,2*%
%TO.N,Net-(L+.3-Pad2)*%
X145796000Y-143256000D03*
%TD*%
%TO.P,L-.4,2*%
%TO.N,Net-(L-.4-Pad2)*%
X157734000Y-143256000D03*
D16*
%TO.P,L-.4,1*%
%TO.N,GND*%
X155194000Y-143256000D03*
%TD*%
%TO.P,R-.5,1*%
%TO.N,GND*%
X167132000Y-142748000D03*
D17*
%TO.P,R-.5,2*%
%TO.N,Net-(R-.5-Pad2)*%
X169672000Y-142748000D03*
%TD*%
D13*
%TO.P,R1,2*%
%TO.N,BIAS*%
X129540000Y-127508000D03*
D14*
%TO.P,R1,1*%
%TO.N,Net-(Bias.1-Pad2)*%
X129540000Y-135128000D03*
%TD*%
%TO.P,R2,1*%
%TO.N,Net-(R+.2-Pad2)*%
X137795000Y-135128000D03*
D13*
%TO.P,R2,2*%
%TO.N,R+*%
X137795000Y-127508000D03*
%TD*%
%TO.P,R3,2*%
%TO.N,L+*%
X146050000Y-127508000D03*
D14*
%TO.P,R3,1*%
%TO.N,Net-(L+.3-Pad2)*%
X146050000Y-135128000D03*
%TD*%
%TO.P,R4,1*%
%TO.N,Net-(L-.4-Pad2)*%
X154305000Y-135128000D03*
D13*
%TO.P,R4,2*%
%TO.N,L-*%
X154305000Y-127508000D03*
%TD*%
%TO.P,R5,2*%
%TO.N,R-*%
X162560000Y-127000000D03*
D14*
%TO.P,R5,1*%
%TO.N,Net-(R-.5-Pad2)*%
X162560000Y-134620000D03*
%TD*%
D13*
%TO.P,Stay5V1,2*%
%TO.N,Read5V*%
X189484000Y-115824000D03*
D14*
%TO.P,Stay5V1,1*%
%TO.N,5V*%
X181864000Y-115824000D03*
%TD*%
D18*
%TO.P,U2,2*%
%TO.N,Read2V*%
X108305600Y-90500200D03*
D19*
%TO.P,U2,1*%
%TO.N,N/C*%
X111074200Y-85496400D03*
D18*
%TO.P,U2,4*%
%TO.N,Read4V*%
X120650000Y-90500200D03*
%TO.P,U2,3*%
%TO.N,Read3V*%
X114554000Y-95250000D03*
%TO.P,U2,5*%
%TO.N,Read5V*%
X117576600Y-85496400D03*
%TD*%
%TO.P,U3,4*%
%TO.N,Net-(5-4V1-Pad1)*%
X175158400Y-102768400D03*
%TO.P,U3,3*%
%TO.N,GND*%
X175158400Y-92428400D03*
%TO.P,U3,1L*%
%TO.N,Read1V*%
X175158400Y-82088400D03*
%TO.P,U3,2*%
%TO.N,Net-(3-2V2-Pad1)*%
X195158400Y-92428400D03*
%TO.P,U3,1R*%
%TO.N,Net-(3-1V2-Pad1)*%
X195158400Y-82088400D03*
%TO.P,U3,5*%
%TO.N,GND*%
X195158400Y-102768400D03*
%TD*%
D20*
%TO.P,SW1,1*%
%TO.N,Net-(.1-Pad2)*%
X144985400Y-76946800D03*
%TO.P,SW1,2*%
%TO.N,Net-(D4-Pad1)*%
X152585400Y-76946800D03*
%TD*%
D21*
%TO.N,Read2V*%
X164592000Y-117856000D03*
%TO.N,Net-(D4-Pad1)*%
X132080000Y-100584000D03*
%TD*%
D22*
%TO.N,Net-(.1-Pad2)*%
X144985400Y-79361600D02*
X129351000Y-94996000D01*
X144985400Y-76946800D02*
X144985400Y-79361600D01*
%TO.N,Read1V*%
X175158400Y-82088400D02*
X168355600Y-82088400D01*
X147320000Y-103124000D02*
X147320000Y-107188000D01*
X168355600Y-82088400D02*
X147320000Y-103124000D01*
%TO.N,Read3V*%
X189484000Y-100076000D02*
X189484000Y-99568000D01*
X181864000Y-107696000D02*
X189484000Y-100076000D01*
%TO.N,GND*%
X190230800Y-107696000D02*
X189484000Y-107696000D01*
X195158400Y-102768400D02*
X190230800Y-107696000D01*
X184274800Y-83312000D02*
X189484000Y-83312000D01*
X175158400Y-92428400D02*
X184274800Y-83312000D01*
%TO.N,Read2V*%
X164592000Y-117856000D02*
X169164000Y-117856000D01*
X169164000Y-117856000D02*
X180848000Y-129540000D01*
X186944000Y-129540000D02*
X189484000Y-132080000D01*
X180848000Y-129540000D02*
X186944000Y-129540000D01*
%TO.N,3.3V*%
X170180000Y-99568000D02*
X162560000Y-107188000D01*
X181864000Y-99568000D02*
X170180000Y-99568000D01*
%TO.N,5V*%
X145796000Y-115824000D02*
X137160000Y-107188000D01*
X181864000Y-115824000D02*
X145796000Y-115824000D01*
%TO.N,Read4V*%
X182880000Y-98044000D02*
X189484000Y-91440000D01*
X164084000Y-98044000D02*
X182880000Y-98044000D01*
X154940000Y-107188000D02*
X164084000Y-98044000D01*
%TO.N,Read5V*%
X157480000Y-107188000D02*
X163576000Y-113284000D01*
X186944000Y-113284000D02*
X189484000Y-115824000D01*
X163576000Y-113284000D02*
X186944000Y-113284000D01*
%TO.N,Net-(D4-Pad1)*%
X132080000Y-100584000D02*
X151892000Y-80772000D01*
X151892000Y-77640200D02*
X152585400Y-76946800D01*
X151892000Y-80772000D02*
X151892000Y-77640200D01*
%TD*%
M02*
