%TF.GenerationSoftware,KiCad,Pcbnew,(5.1.10)-1*%
%TF.CreationDate,2021-08-05T18:33:57-07:00*%
%TF.ProjectId,SimpleCableTesterStatics,53696d70-6c65-4436-9162-6c6554657374,rev?*%
%TF.SameCoordinates,Original*%
%TF.FileFunction,Soldermask,Bot*%
%TF.FilePolarity,Negative*%
%FSLAX46Y46*%
G04 Gerber Fmt 4.6, Leading zero omitted, Abs format (unit mm)*
G04 Created by KiCad (PCBNEW (5.1.10)-1) date 2021-08-05 18:33:57*
%MOMM*%
%LPD*%
G01*
G04 APERTURE LIST*
%ADD10R,2.030000X1.730000*%
%ADD11O,2.030000X1.730000*%
%ADD12C,1.270000*%
%ADD13C,2.205000*%
%ADD14O,1.600000X1.600000*%
%ADD15C,1.600000*%
%ADD16R,1.600000X1.600000*%
%ADD17R,1.800000X1.800000*%
%ADD18C,1.800000*%
%ADD19O,4.000000X4.000000*%
%ADD20R,4.000000X4.000000*%
%ADD21O,3.000000X3.000000*%
G04 APERTURE END LIST*
D10*
%TO.C,U1*%
X114808000Y-119888000D03*
D11*
X114808000Y-117348000D03*
X114808000Y-114808000D03*
%TD*%
D12*
%TO.C,.1*%
X128756000Y-88626000D03*
D13*
X129351000Y-94996000D03*
X167321000Y-94996000D03*
%TD*%
D14*
%TO.C,3-1V1*%
X181864000Y-75184000D03*
D15*
X189484000Y-75184000D03*
%TD*%
%TO.C,3-1V2*%
X181864000Y-123952000D03*
D14*
X189484000Y-123952000D03*
%TD*%
D15*
%TO.C,3-2V1*%
X181864000Y-132080000D03*
D14*
X189484000Y-132080000D03*
%TD*%
%TO.C,3-2V2*%
X181864000Y-140208000D03*
D15*
X189484000Y-140208000D03*
%TD*%
%TO.C,3.3-3V1*%
X181864000Y-99568000D03*
D14*
X189484000Y-99568000D03*
%TD*%
D15*
%TO.C,3.3-3V2*%
X181864000Y-107696000D03*
D14*
X189484000Y-107696000D03*
%TD*%
%TO.C,5-4V1*%
X189484000Y-83312000D03*
D15*
X181864000Y-83312000D03*
%TD*%
%TO.C,5-4V2*%
X181864000Y-91440000D03*
D14*
X189484000Y-91440000D03*
%TD*%
D16*
%TO.C,A1*%
X129540000Y-122428000D03*
D14*
X162560000Y-107188000D03*
X132080000Y-122428000D03*
X160020000Y-107188000D03*
X134620000Y-122428000D03*
X157480000Y-107188000D03*
X137160000Y-122428000D03*
X154940000Y-107188000D03*
X139700000Y-122428000D03*
X152400000Y-107188000D03*
X142240000Y-122428000D03*
X149860000Y-107188000D03*
X144780000Y-122428000D03*
X147320000Y-107188000D03*
X147320000Y-122428000D03*
X144780000Y-107188000D03*
X149860000Y-122428000D03*
X142240000Y-107188000D03*
X152400000Y-122428000D03*
X139700000Y-107188000D03*
X154940000Y-122428000D03*
X137160000Y-107188000D03*
X157480000Y-122428000D03*
X134620000Y-107188000D03*
X160020000Y-122428000D03*
X132080000Y-107188000D03*
X162560000Y-122428000D03*
X129540000Y-107188000D03*
X165100000Y-122428000D03*
X165100000Y-107188000D03*
%TD*%
D17*
%TO.C,Bias.1*%
X119380000Y-143256000D03*
D18*
X121920000Y-143256000D03*
%TD*%
%TO.C,R+.2*%
X133858000Y-143256000D03*
D17*
X131318000Y-143256000D03*
%TD*%
%TO.C,L+.3*%
X143256000Y-143256000D03*
D18*
X145796000Y-143256000D03*
%TD*%
%TO.C,L-.4*%
X157734000Y-143256000D03*
D17*
X155194000Y-143256000D03*
%TD*%
%TO.C,R-.5*%
X167132000Y-142748000D03*
D18*
X169672000Y-142748000D03*
%TD*%
D14*
%TO.C,R1*%
X129540000Y-127508000D03*
D15*
X129540000Y-135128000D03*
%TD*%
%TO.C,R2*%
X137795000Y-135128000D03*
D14*
X137795000Y-127508000D03*
%TD*%
%TO.C,R3*%
X146050000Y-127508000D03*
D15*
X146050000Y-135128000D03*
%TD*%
%TO.C,R4*%
X154305000Y-135128000D03*
D14*
X154305000Y-127508000D03*
%TD*%
%TO.C,R5*%
X162560000Y-127000000D03*
D15*
X162560000Y-134620000D03*
%TD*%
D14*
%TO.C,Stay5V1*%
X189484000Y-115824000D03*
D15*
X181864000Y-115824000D03*
%TD*%
D19*
%TO.C,U2*%
X108305600Y-90500200D03*
D20*
X111074200Y-85496400D03*
D19*
X120650000Y-90500200D03*
X114554000Y-95250000D03*
X117576600Y-85496400D03*
%TD*%
%TO.C,U3*%
X175158400Y-102768400D03*
X175158400Y-92428400D03*
X175158400Y-82088400D03*
X195158400Y-92428400D03*
X195158400Y-82088400D03*
X195158400Y-102768400D03*
%TD*%
D21*
%TO.C,SW1*%
X144985400Y-76946800D03*
X152585400Y-76946800D03*
%TD*%
M02*
