M48
INCH,TZ
T1C0.0157
T2C0.0315
T3C0.0354
T4C0.0394
T5C0.0402
T6C0.0579
T7C0.0630
T8C0.0984
T9C0.1272
%
G90
G05
T1
X52000Y-39600
X64800Y-46400
T2
X51000Y-50200
X51000Y-53200
X54250Y-50200
X54250Y-53200
X57500Y-50200
X57500Y-53200
X60750Y-50200
X60750Y-53200
X64000Y-50000
X64000Y-53000
X71600Y-29600
X71600Y-32800
X71600Y-36000
X71600Y-39200
X71600Y-42400
X71600Y-45600
X71600Y-48800
X71600Y-52000
X71600Y-55200
X74600Y-29600
X74600Y-32800
X74600Y-36000
X74600Y-39200
X74600Y-42400
X74600Y-45600
X74600Y-48800
X74600Y-52000
X74600Y-55200
T3
X47000Y-56400
X48000Y-56400
X51700Y-56400
X52700Y-56400
X56400Y-56400
X57400Y-56400
X61100Y-56400
X62100Y-56400
X65800Y-56200
X66800Y-56200
T4
X51000Y-42200
X51000Y-48200
X52000Y-42200
X52000Y-48200
X53000Y-42200
X53000Y-48200
X54000Y-42200
X54000Y-48200
X55000Y-42200
X55000Y-48200
X56000Y-42200
X56000Y-48200
X57000Y-42200
X57000Y-48200
X58000Y-42200
X58000Y-48200
X59000Y-42200
X59000Y-48200
X60000Y-42200
X60000Y-48200
X61000Y-42200
X61000Y-48200
X62000Y-42200
X62000Y-48200
X63000Y-42200
X63000Y-48200
X64000Y-42200
X64000Y-48200
X65000Y-42200
X65000Y-48200
T5
X45200Y-45200
X45200Y-46200
X45200Y-47200
T6
X50926Y-37400
X65874Y-37400
T7
X57081Y-30294
X60073Y-30294
T8
X68960Y-32318
X68960Y-36389
X68960Y-40460
X76834Y-32318
X76834Y-36389
X76834Y-40460
T9
X42640Y-35630
X43730Y-33660
X45100Y-37500
X46290Y-33660
X47500Y-35630
T0
M30
